<?xml version="1.0" encoding="utf-8"?>
<!-- Generator: Adobe Illustrator 19.0.0, SVG Export Plug-In . SVG Version: 6.00 Build 0)  -->
<svg version="1.1" id="Layer_1" xmlns="http://www.w3.org/2000/svg" xmlns:xlink="http://www.w3.org/1999/xlink" x="0px" y="0px"
	 viewBox="0 0 512 512" style="enable-background:new 0 0 512 512;" xml:space="preserve">
<style type="text/css">
	.st0{fill:#FFF578;}
	.st1{fill:#FFFFFF;}
	.st2{fill:#E9EEF2;}
</style>
<circle id="XMLID_634_" class="st0" cx="256" cy="256" r="256"/>
<g id="XMLID_514_">
	<g id="XMLID_513_">
		<g id="XMLID_557_">
			<path id="XMLID_168_" class="st1" d="M348.6,132.6v14.9c0,1.3-1.1,2.4-2.4,2.4H217.8c-1.3,0-2.4-1.1-2.4-2.4v-14.9
				c0-1.3,1.1-2.4,2.4-2.4h128.4C347.5,130.2,348.6,131.3,348.6,132.6z"/>
		</g>
	</g>
	<g id="XMLID_512_">
		<g id="XMLID_556_">
			<path id="XMLID_167_" class="st1" d="M351.3,325H212.4c0.7-16,7.9-22.3,7.9-22.3c-2.6-10.2-4.4-20.3-5.7-29.9
				c-9.3-70.3,12.5-122.5,12.5-122.5l0.2-0.3h109.1l0.2,0.3c0,0,21.9,52.2,12.5,122.4c-1.3,9.6-3.1,19.8-5.7,30
				C343.4,302.8,350.6,309,351.3,325z"/>
		</g>
	</g>
	<g id="XMLID_511_">
		<g id="XMLID_546_">
			<path id="XMLID_166_" class="st1" d="M220.3,302.7c-2.6-10.2-4.4-20.3-5.7-29.9c16.3-18.9,40.4-30.9,67.2-30.9
				c26.9,0,51,11.9,67.3,30.8c-1.3,9.6-3.1,19.8-5.7,30c0,0,7.2,6.2,7.9,22.2H212.4C213.1,309,220.3,302.7,220.3,302.7z"/>
		</g>
	</g>
	<g id="XMLID_509_">
		<g id="XMLID_553_">
			<path id="XMLID_530_" d="M346.2,151.4H217.8c-2.1,0-3.9-1.7-3.9-3.9v-14.9c0-2.1,1.7-3.9,3.9-3.9h128.4c2.1,0,3.9,1.7,3.9,3.9
				v14.9C350.1,149.7,348.3,151.4,346.2,151.4z M217.8,131.8c-0.5,0-0.9,0.4-0.9,0.9v14.9c0,0.5,0.4,0.9,0.9,0.9h128.4
				c0.5,0,0.9-0.4,0.9-0.9v-14.9c0-0.5-0.4-0.9-0.9-0.9H217.8z"/>
			<path id="XMLID_541_" d="M346.2,152.3H217.8c-2.6,0-4.8-2.1-4.8-4.8v-14.9c0-2.6,2.1-4.8,4.8-4.8h128.4c2.6,0,4.8,2.1,4.8,4.8
				v14.9C350.9,150.1,348.8,152.3,346.2,152.3z M217.8,129.6c-1.7,0-3,1.4-3,3v14.9c0,1.7,1.4,3,3,3h128.4c1.7,0,3-1.4,3-3v-14.9
				c0-1.7-1.4-3-3-3H217.8z M346.2,149.3H217.8c-1,0-1.8-0.8-1.8-1.8v-14.9c0-1,0.8-1.8,1.8-1.8h128.4c1,0,1.8,0.8,1.8,1.8v14.9
				C347.9,148.5,347.1,149.3,346.2,149.3z M217.8,132.6C217.7,132.6,217.7,132.6,217.8,132.6l0,14.9l128.4,0l0-14.9L217.8,132.6z"/>
		</g>
	</g>
	<g id="XMLID_477_">
		<g id="XMLID_550_">
			<path id="XMLID_517_" d="M351.3,327H212.4c-0.4,0-0.8-0.6-1.1-0.9c-0.3-0.3-0.4-0.9-0.4-1.3c0.6-13.1,6-20.7,7.8-22.9
				c-2.4-9.5-4.2-19.4-5.6-29.4c-9.3-69.9,12.4-121.7,12.6-122.2c0.3-0.7,1.1-0.2,1.8-0.2h108.3c0.3,0,0.7-0.9,1-0.8
				c0.5,0.1,0.9,0.1,1.1,0.5c0.2,0.5,21.9,53,12.6,122.8c-1.3,10.1-3.2,20-5.6,29.4c1.8,2.1,7.2,9.5,7.8,22.6c0,0.4-0.1,1.3-0.4,1.6
				C352.1,326.4,351.7,327,351.3,327z M214,325h135.7c-1.1-14-7.3-20.6-7.4-20.7c-0.4-0.4-0.5-1.4-0.4-1.9
				c2.4-9.6,4.3-19.2,5.7-29.5c8.4-63.6-9-111.9-12-119.9H228.1c-2.9,8-20.5,55.8-12,119.6c1.4,10.2,3.3,19.9,5.7,29.5
				c0.1,0.5,0,1.8-0.4,2.2C221.4,304.3,215.1,311,214,325z"/>
			<path id="XMLID_521_" d="M351.3,328H212.4c-0.7,0-1.2-0.6-1.5-1c-0.1-0.1-0.1-0.2-0.2-0.2c-0.5-0.5-0.7-1.5-0.6-2
				c0.6-13,5.7-20.6,7.7-23.1c-2.3-9.3-4.2-19.1-5.5-29.1c-9.3-69.6,12.5-122,12.7-122.5c0.5-1.1,1.7-1,2.1-0.9
				c0.2,0.1,0.4-0.1,0.5-0.1h108c0,0,0,0.1,0.1,0.1c0.3-0.4,0.7-0.9,1.4-0.7c0.1,0,0.2,0.1,0.2,0.1c0.4,0.1,1.1,0.2,1.4,1
				c0.2,0.5,22,53.2,12.7,123.3c-1.3,9.9-3.2,19.7-5.5,29.1c2.3,2.9,7.1,10.2,7.7,22.7c0,0.3,0,1.7-0.6,2.3
				c-0.1,0.1-0.1,0.1-0.2,0.2C352.5,327.5,352,328,351.3,328z M212.6,326h138.6c0.1,0,0.2,0,0.3-0.1c0.1-0.2,0.2-0.2,0.4-0.3
				c0.1-0.1,0.2-0.7,0.2-1c-0.6-12.9-5.9-20.1-7.6-22l-0.3-0.3l0.1-0.4c2.4-9.5,4.2-19.3,5.6-29.3c9.1-68.3-11.6-119.9-12.5-122.3
				c0,0-0.1,0-0.1,0c0,0,0,0,0,0c0,0,0,0.1-0.1,0.1c-0.2,0.3-0.6,0.8-1.1,0.8H227.6c-0.4,0-0.7-0.1-1-0.2c-0.1,0-0.1,0-0.2-0.1
				c-1.4,3.5-21.4,54.4-12.5,121.5c1.3,10.1,3.2,20,5.5,29.4l0.1,0.4l-0.3,0.3c-1.6,2-7,9.4-7.6,22.5c0,0.3,0.1,0.7,0.2,0.8
				c0.1,0.1,0.2,0,0.4,0.2C212.4,326,212.5,326,212.6,326z M350.6,326H213.1l0.1-1.1c1.1-13.5,7.6-21.1,7.6-21.2
				c0.1-0.2,0.2-1.1,0.2-1.3c-2.6-10.1-4.4-19.8-5.7-29.4c-8.4-63,8.6-111.2,12.1-120.1l0.2-0.9h108.6l0.2,0.8
				c0.9,2.1,21,53.2,12.1,120.2c-1.3,9.6-3.1,19-5.7,29.4c-0.1,0.3,0,1,0.2,1.1c0.1,0.1,6.5,7.6,7.6,21.3L350.6,326z M214.9,324
				h133.9c-1.2-12-7-19.2-7.1-19.2c-0.6-0.6-0.8-2-0.6-2.6c2.6-10.3,4.4-19.7,5.7-29.3c8.5-63.8-9.5-112.9-11.7-118.9H228.7
				c-3.9,10-19.9,57.2-11.8,118.6c1.3,9.6,3.1,19.3,5.7,29.3c0.2,0.6,0.1,2.2-0.6,2.9C222,304.8,216.2,311,214.9,324z"/>
		</g>
	</g>
	<g id="XMLID_476_">
		<g id="XMLID_547_">
			<path id="XMLID_498_" d="M351.3,328H212.4c-0.4,0-0.8-0.8-1.1-1.1c-0.3-0.3-0.4-1-0.4-1.4c0.6-13.1,6-20.8,7.8-22.9
				c-2.4-9.5-4.2-19.4-5.6-29.4c-0.1-0.4,0.1-0.9,0.4-1.2c17.2-20,42.2-31.4,68.4-31.4c26.3,0,51.2,11.4,68.4,31.3
				c0.3,0.3,0.4,0.8,0.4,1.2c-1.4,10.3-3.2,20.2-5.6,29.6c1.8,2.2,7.2,9.6,7.8,22.7c0,0.4-0.1,1.4-0.4,1.7
				C352.1,327.2,351.7,328,351.3,328z M214,326h135.7c-1.1-14-7.3-20.9-7.4-20.9c-0.4-0.4-0.5-1.5-0.4-2c2.3-9.3,4.2-19.4,5.6-29.6
				c-16.6-18.9-40.5-29.9-65.7-29.9c-25.1,0-49,10.8-65.7,29.8c1.3,10,3.2,19.7,5.6,29.1c0.1,0.5,0,2.1-0.4,2.5l0,0
				C221.4,305.1,215.1,312,214,326z"/>
			<path id="XMLID_505_" d="M351.3,329H212.4c-0.7,0-1.2-0.7-1.5-1.1c-0.1-0.1-0.1-0.2-0.2-0.3c-0.5-0.5-0.7-1.5-0.6-2.1
				c0.6-13,5.7-20.7,7.7-23.1c-2.3-9.3-4.2-19.1-5.5-29.1c-0.1-0.7,0.1-1.4,0.5-1.9c17.4-20.2,42.6-31.7,69-31.7
				c26.6,0,51.7,11.5,69,31.6c0.4,0.5,0.6,1.2,0.5,1.8c-1.3,10.1-3.2,20-5.5,29.3c2,2.5,7.1,10.1,7.7,22.9c0,0.3-0.1,1.8-0.6,2.4
				c-0.1,0.1-0.1,0.2-0.2,0.3C352.5,328.3,352,329,351.3,329z M212.6,327h138.5c0.1,0,0.2-0.1,0.3-0.2c0.1-0.2,0.3-0.3,0.4-0.4
				c0.1-0.1,0.2-0.8,0.2-1.1c-0.6-12.9-6-20.3-7.6-22.2l-0.3-0.3l0.1-0.4c2.3-9.3,4.2-19.3,5.6-29.5c0-0.2,0-0.4-0.2-0.5
				c-17-19.7-41.7-31-67.8-31c-26,0-50.7,11.4-67.8,31.1c-0.1,0.1-0.2,0.4-0.2,0.6c1.3,10.1,3.2,20,5.5,29.4l0.1,0.4l-0.3,0.3
				c-1.6,2-7,9.4-7.6,22.5c0,0.3,0.1,0.7,0.2,0.8c0.1,0.1,0.2,0.1,0.4,0.3C212.4,326.9,212.5,327,212.6,327z M350.6,326H213.1
				l0.1-0.6c1.1-13.5,7.6-21.2,7.6-21.2c0.1-0.2,0.2-1.2,0.2-1.5c-2.4-9.4-4.3-19.2-5.6-29.2l-0.1-0.4l0.2-0.3
				c16.8-19.1,40.9-30.1,66.3-30.1c25.3,0,49.5,11,66.3,30.1l0.2,0.3l-0.1,0.4c-1.4,10.6-3.3,20.5-5.6,29.7c-0.1,0.3,0,1,0.2,1.1
				c0.1,0.1,6.5,7.4,7.6,21L350.6,326z M214.9,325h133.9c-1.2-13-7-19.4-7.1-19.5c-0.6-0.6-0.7-2-0.6-2.7c2.3-9,4.1-18.8,5.5-29.1
				c-16.5-18.6-40.1-29.3-64.8-29.3c-24.8,0-48.4,10.6-64.8,29.2c1.3,9.7,3.2,19.4,5.5,28.6c0.1,0.6,0.1,2.5-0.6,3.2
				C222,305.5,216.2,312,214.9,325z"/>
		</g>
	</g>
	<g id="XMLID_471_">
		<g id="XMLID_475_">
			<g id="XMLID_542_">
				<polygon id="XMLID_165_" class="st1" points="289,180 289,213.6 282,206.4 275,213.6 275,180 				"/>
			</g>
		</g>
		<g id="XMLID_472_">
			<g id="XMLID_543_">
				<path id="XMLID_484_" d="M288.3,215.1c-0.4,0-0.8-0.2-1.1-0.4l-6.1-6.1l-6.1,6.1c-0.4,0.4-1.8,0.6-2.4,0.3
					c-0.6-0.2-1.7-0.8-1.7-1.4v-32.7c0-0.8,2.2,0.1,3,0.1h14.3c0.8,0-0.3-0.9-0.3-0.1v32.7c0,0.6,0.5,1.2,0,1.4
					C287.8,215.1,288.5,215.1,288.3,215.1z M281.2,204.9c0.4,0-0.1,0.2,0.2,0.4l3.7,4.6v-26h-11v26l5.3-4.6
					C279.6,205.1,280.8,204.9,281.2,204.9z"/>
				<path id="XMLID_489_" d="M288.3,215.9c-0.6,0-1.2-0.3-1.7-0.7l-5.5-5.5l-5.5,5.5c-0.7,0.7-2.6,0.8-3.4,0.5
					c-1.5-0.6-2.3-1.3-2.3-2.2v-32.7c0-0.3,0.2-0.7,0.4-0.9c0.6-0.5,1.7-0.3,2.7-0.2c0.3,0.1,0.7,0.1,0.9,0.1h13.8
					c0.2,0,0.4-0.3,0.7-0.3c0.6,0,0.9,0.4,0.9,1c0,0.3-0.5,0.6-0.5,0.8v32.2c0,0.1,0.1,0.2,0.1,0.4c0,0.2,0.2,0.6,0,1l0,0.2
					l-0.1,0.8L288.3,215.9z M272,213.5c0,0.1,0.3,0.4,1.1,0.7c0.3,0.1,1.3,0,1.5-0.2l6.6-6.7l3.3,3.4l-3.9-4.9c0,0-0.1-0.1-0.1-0.1
					c-0.3,0-0.7,0.1-0.8,0.2l-6.8,5.8V183h13v29l1.3,1.7c0,0-0.3-0.1-0.3-0.1V181h-13c-0.3,0-0.5,0.3-1,0.2
					c-0.3-0.1-1.1,0.2-1.1,0.2V213.5z M275,185v23.1l3.9-3.4c0.6-0.6,2.3-0.7,2.3-0.7c0.5,0,0.8,0.3,0.9,0.5c0.1,0.1,0.1,0.3,0,0.5
					l1.9,2.5V185H275z"/>
			</g>
		</g>
	</g>
	<g id="XMLID_453_">
		<g id="XMLID_458_">
			<g id="XMLID_538_">
				<circle id="XMLID_164_" class="st1" cx="281.9" cy="174.3" r="11.3"/>
			</g>
		</g>
		<g id="XMLID_454_">
			<g id="XMLID_539_">
				<path id="XMLID_468_" d="M281.9,187.2c-7.1,0-12.8-5.8-12.8-12.8c0-7.1,5.8-12.8,12.8-12.8c7.1,0,12.8,5.8,12.8,12.8
					C294.7,181.4,289,187.2,281.9,187.2z M281.9,164.5c-5.4,0-9.8,4.4-9.8,9.8c0,5.4,4.4,9.8,9.8,9.8c5.4,0,9.8-4.4,9.8-9.8
					C291.7,168.9,287.3,164.5,281.9,164.5z"/>
				<path id="XMLID_473_" d="M281.9,188c-7.6,0-13.7-6.2-13.7-13.7c0-7.6,6.2-13.7,13.7-13.7s13.7,6.2,13.7,13.7
					C295.6,181.9,289.4,188,281.9,188z M281.9,162.3c-6.6,0-12,5.4-12,12c0,6.6,5.4,12,12,12s12-5.4,12-12
					C293.8,167.7,288.5,162.3,281.9,162.3z M281.9,185c-5.9,0-10.7-4.8-10.7-10.7s4.8-10.7,10.7-10.7s10.7,4.8,10.7,10.7
					S287.8,185,281.9,185z M281.9,165.4c-4.9,0-9,4-9,9c0,4.9,4,9,9,9s9-4,9-9C290.8,169.4,286.8,165.4,281.9,165.4z"/>
			</g>
		</g>
	</g>
	<g id="XMLID_403_">
		<g id="XMLID_497_">
			<g id="XMLID_537_">
				<path id="XMLID_163_" class="st1" d="M235.4,184.4l-54.4-3l0.8-14.6l54.4,3c4,0.2,7.1,3.7,6.9,7.7v0
					C242.9,181.6,239.4,184.7,235.4,184.4z"/>
			</g>
		</g>
		<g id="XMLID_494_">
			<g id="XMLID_536_">
				
					<rect id="XMLID_162_" x="212.2" y="183.6" transform="matrix(0.9984 5.567192e-002 -5.567192e-002 0.9984 11.0486 -11.9578)" class="st2" width="15.9" height="17.4"/>
			</g>
		</g>
		<g id="XMLID_491_">
			<g id="XMLID_535_">
				
					<rect id="XMLID_161_" x="205.8" y="201" transform="matrix(0.9984 5.567192e-002 -5.567192e-002 0.9984 11.9976 -11.8783)" class="st1" width="26.8" height="16.7"/>
			</g>
		</g>
		<g id="XMLID_488_">
			<g id="XMLID_534_">
				<path id="XMLID_160_" class="st1" d="M200,219.7L200,219.7c-2,1.8-3.1,4.2-3.3,6.9l0,0.1c-0.2,3.7-1.9,7.2-4.7,9.7l-1.1,1
					c-2.1,1.8-4.8,2.8-7.5,2.6h0c-3.7-0.2-7.4,1.1-10.1,3.5l0,0c-2.8,2.5-4.5,6-4.7,9.7l-3.6,64.8c-0.2,4,2.8,7.4,6.8,7.6l49.6,2.8
					c4,0.2,7.4-2.8,7.6-6.8l5.2-92.6c0.1-1,1-6.4-2.2-10.5l-24.8-1.3C204.6,217,202,218,200,219.7z"/>
			</g>
		</g>
		<g id="XMLID_485_">
			<g id="XMLID_533_">
				
					<rect id="XMLID_159_" x="173.1" y="168.6" transform="matrix(0.9984 5.567192e-002 -5.567192e-002 0.9984 9.9539 -9.5982)" class="st1" width="8.4" height="10.5"/>
			</g>
		</g>
		<g id="XMLID_482_">
			<g id="XMLID_532_">
				<path id="XMLID_158_" class="st1" d="M186.6,181.9l-0.6,11.6c-0.1,1.9-0.9,3.6-2.3,4.9l-3.1,2.8c-2.1,1.9-2.3,5.1-0.4,7.2v0
					c1.9,2.1,5.1,2.3,7.1,0.4l3.3-2.9c3.3-2.9,5.2-7,5.5-11.4l0.7-11.9L186.6,181.9z"/>
			</g>
		</g>
		<g id="XMLID_474_">
			<g id="XMLID_528_">
				<path id="XMLID_157_" class="st1" d="M225.2,248.1l-3.3,59.8c-0.2,3.4-3.1,6.1-6.6,5.9l-33.9-1.9c-3.4-0.2-6.1-3.1-5.9-6.6
					l1.7-30.6c0.2-3.4,3.1-6.1,6.6-5.9l11.5,0.6c8.6,0.5,16-6.1,16.5-14.7l0.4-7.4c0.2-3.6,3.3-6.4,6.9-6.2h0
					C222.6,241.4,225.4,244.5,225.2,248.1z"/>
			</g>
		</g>
		<g id="XMLID_413_">
			<g id="XMLID_529_">
				<path id="XMLID_460_" d="M235.8,186c-0.2,0-0.3,0-0.5,0l-55.9-3.1l1-17.6l55.9,3.1c4.9,0.3,8.6,4.4,8.3,9.3
					C244.3,182.3,240.4,186,235.8,186z M182.6,180l52.9,2.9c3.2,0.2,6-2.3,6.1-5.5c0.2-3.2-2.3-6-5.5-6.1l-52.9-2.9L182.6,180z"/>
				<path id="XMLID_463_" d="M235.8,186.8L235.8,186.8c-0.2,0-0.4,0-0.5,0l-56.7-3.2l1.1-19.4l0.9,0l55.9,3.1
					c5.3,0.3,9.4,4.9,9.1,10.2C245.2,182.8,240.9,186.8,235.8,186.8z M180.4,182l55,3.1c0.1,0,0.3,0,0.4,0c4.2,0,7.7-3.3,7.9-7.5
					c0.2-4.4-3.1-8.1-7.5-8.4l-55-3.1L180.4,182z M235.8,183.8c-0.1,0-0.3,0-0.4,0l-53.7-3l0.7-13.4l0.9,0l52.9,2.9
					c1.8,0.1,3.4,0.9,4.6,2.2c1.2,1.3,1.8,3.1,1.7,4.8c-0.1,1.8-0.9,3.4-2.2,4.6C239,183.2,237.5,183.8,235.8,183.8z M183.5,179.2
					l52,2.9c1.3,0.1,2.6-0.4,3.6-1.2c1-0.9,1.6-2.1,1.7-3.4c0.1-1.3-0.4-2.6-1.3-3.6c-0.9-1-2.1-1.6-3.4-1.6l-52-2.9L183.5,179.2z"
					/>
			</g>
		</g>
		<g id="XMLID_412_">
			<g id="XMLID_503_">
				
					<rect id="XMLID_156_" x="212.2" y="183.6" transform="matrix(0.9984 5.567192e-002 -5.567192e-002 0.9984 11.0486 -11.9578)" class="st1" width="15.9" height="17.4"/>
			</g>
			<g id="XMLID_525_">
				<path id="XMLID_449_" d="M229,203.1l-18.9-1.1l1.1-20.4l18.9,1.1L229,203.1z M213.3,199.2l12.8,0.7l0.8-14.4l-12.8-0.7
					L213.3,199.2z"/>
				<path id="XMLID_452_" d="M229.8,204l-20.6-1.1l1.2-22.2l20.6,1.1L229.8,204z M211.1,201.2l17.1,1l1-18.7l-17.1-1L211.1,201.2z
					 M227,200.8l-14.6-0.8l0.9-16.2l14.6,0.8L227,200.8z M214.2,198.4l11.1,0.6l0.7-12.7l-11.1-0.6L214.2,198.4z"/>
			</g>
		</g>
		<g id="XMLID_410_">
			<g id="XMLID_522_">
				<path id="XMLID_440_" d="M233.5,220.1l-29.7-1.7l1.1-19.7l29.7,1.7L233.5,220.1z M207,215.6l23.7,1.3l0.8-13.7l-23.7-1.3
					L207,215.6z"/>
				<path id="XMLID_443_" d="M234.3,221l-31.5-1.8l1.2-21.5l31.5,1.8L234.3,221z M204.7,217.6l28,1.6l1-18l-28-1.6L204.7,217.6z
					 M231.5,217.8l-25.5-1.4l0.9-15.5l25.5,1.4L231.5,217.8z M207.9,214.8l22,1.2l0.7-12l-22-1.2L207.9,214.8z"/>
			</g>
		</g>
		<g id="XMLID_409_">
			<g id="XMLID_519_">
				<path id="XMLID_432_" d="M221.9,330c-0.2,0-0.3,0-0.5,0l-49.6-2.8c-2.3-0.1-4.5-1.2-6-2.9c-1.6-1.7-2.3-4-2.2-6.3l3.6-64.8
					c0.2-4.2,2.1-8,5.2-10.7c3.1-2.8,7.1-4.1,11.2-3.9c2.4,0.1,4.7-0.7,6.4-2.3l1.1-1c2.5-2.2,4-5.3,4.2-8.7l0-0.1
					c0.2-3,1.5-5.9,3.8-7.9l0,0c2.3-2.1,5.2-3.1,8.3-2.9l25.5,1.4l0.4,0.5c3.2,4.2,2.7,9.4,2.5,11.1c0,0.2,0,0.3,0,0.4l-5.2,92.6
					c-0.1,2.3-1.2,4.5-2.9,6C226.1,329.2,224,330,221.9,330z M182.6,241.6c-3.1,0-6,1.1-8.3,3.2c-2.5,2.2-4,5.3-4.2,8.7l-3.6,64.8
					c-0.1,1.5,0.4,3,1.5,4.2c1,1.1,2.4,1.8,4,1.9l49.6,2.8c1.5,0.1,3-0.4,4.1-1.5c1.1-1,1.8-2.4,1.9-4l5.2-92.6c0-0.1,0-0.3,0-0.5
					c0.1-1.5,0.5-5.3-1.5-8.4l-24.1-1.3c-2.3-0.1-4.4,0.6-6.1,2.2l0,0c-1.7,1.5-2.7,3.6-2.8,5.8l0,0.1c-0.2,4.2-2.1,8-5.2,10.8
					l-1.1,1c-2.4,2.1-5.4,3.2-8.6,3C183.1,241.6,182.9,241.6,182.6,241.6z"/>
				<path id="XMLID_435_" d="M221.9,330.8c-0.2,0-0.4,0-0.5,0l-49.6-2.8c-2.6-0.1-4.9-1.3-6.6-3.2c-1.7-1.9-2.6-4.4-2.4-7l3.6-64.8
					c0.2-4.4,2.2-8.4,5.5-11.3c3.3-2.9,7.5-4.4,11.8-4.1c2.1,0.1,4.2-0.6,5.8-2l1.1-1c2.3-2.1,3.7-5,3.9-8.1l0-0.1
					c0.2-3.3,1.6-6.3,4.1-8.5c2.5-2.2,5.6-3.3,8.9-3.2l25.9,1.4l0.7,0.9c3.4,4.4,2.9,9.9,2.7,11.7c0,0.2,0,0.3,0,0.3l-5.2,92.6
					c-0.1,2.6-1.3,4.9-3.2,6.6C226.5,330,224.2,330.8,221.9,330.8z M182.6,239.4c-3.6,0-7,1.3-9.8,3.7c-2.9,2.6-4.7,6.2-4.9,10.1
					l-3.6,64.8c-0.1,2.1,0.6,4.1,2,5.7c1.4,1.6,3.3,2.5,5.4,2.6l49.6,2.8c2.1,0.1,4.1-0.6,5.7-2c1.6-1.4,2.5-3.3,2.6-5.4l5.2-92.6
					c0-0.1,0-0.2,0-0.3c0.2-1.7,0.7-6.7-2.3-10.6l-0.2-0.2l-25.1-1.4c-2.8-0.2-5.6,0.8-7.7,2.7c-2.1,1.9-3.3,4.5-3.5,7.3l0,0.1
					c-0.2,3.6-1.8,6.9-4.5,9.3l-1.1,1c-1.9,1.7-4.5,2.6-7.1,2.5C183.2,239.4,182.9,239.4,182.6,239.4z M221.9,327.8
					c-0.1,0-0.3,0-0.4,0l-49.6-2.8c-1.8-0.1-3.4-0.9-4.6-2.2c-1.2-1.3-1.8-3-1.7-4.8l3.6-64.8c0.2-3.6,1.8-6.9,4.5-9.3
					c2.6-2.4,6.1-3.6,9.7-3.4c3,0.2,5.8-0.8,8-2.8l1.1-1c2.9-2.6,4.7-6.2,4.9-10.2l0-0.1c0.1-2.5,1.2-4.8,3.1-6.4
					c1.9-1.7,4.3-2.5,6.7-2.4l24.6,1.3l0.2,0.4c2.2,3.4,1.8,7.5,1.6,9c0,0.2,0,0.3,0,0.5l-5.2,92.6c-0.1,1.8-0.9,3.4-2.2,4.6
					C225,327.3,223.5,327.8,221.9,327.8z M182.6,242.4c-2.9,0-5.6,1.1-7.7,3c-2.3,2.1-3.7,4.9-3.9,8.1l-3.6,64.8
					c-0.1,1.3,0.4,2.6,1.2,3.5c0.9,1,2.1,1.5,3.4,1.6l49.6,2.8c1.3,0.1,2.5-0.4,3.5-1.2c1-0.9,1.5-2.1,1.6-3.4l5.2-92.6
					c0-0.1,0-0.3,0-0.5c0.1-1.3,0.5-4.7-1.1-7.5l-23.7-1.3c-2-0.1-4,0.6-5.5,1.9c-1.5,1.4-2.4,3.2-2.5,5.2l0,0.1
					c-0.2,4.4-2.2,8.4-5.5,11.4l-1.1,1c-2.5,2.3-5.8,3.4-9.2,3.2C183.1,242.4,182.8,242.4,182.6,242.4z"/>
			</g>
		</g>
		<g id="XMLID_407_">
			<g id="XMLID_516_">
				<path id="XMLID_424_" d="M182.6,180.9l-11.4-0.6l0.8-13.5l11.4,0.6L182.6,180.9z M174.4,177.4l5.4,0.3l0.4-7.4l-5.4-0.3
					L174.4,177.4z"/>
				<path id="XMLID_427_" d="M183.4,181.8l-13.1-0.7l0.8-15.2l13.1,0.7L183.4,181.8z M172.1,179.4l9.6,0.5l0.7-11.7l-9.6-0.5
					L172.1,179.4z M180.6,178.6l-7.1-0.4l0.5-9.2l7.1,0.4L180.6,178.6z M175.3,176.6l3.6,0.2l0.3-5.7l-3.6-0.2L175.3,176.6z"/>
			</g>
		</g>
		<g id="XMLID_406_">
			<g id="XMLID_507_">
				<path id="XMLID_416_" d="M183.9,211.5c-1.8,0-3.6-0.7-4.9-2.2c-1.2-1.3-1.8-3-1.7-4.7s0.9-3.4,2.2-4.5l3.1-2.8
					c1.1-1,1.8-2.3,1.8-3.8l0.7-13.1l13.1,0.7l-0.7,13.4c-0.3,4.7-2.4,9.2-6,12.4l-3.3,2.9C187,210.9,185.4,211.5,183.9,211.5z
					 M188,183.5l-0.6,10.1c-0.1,2.3-1.1,4.4-2.8,5.9l-3.1,2.8c-0.7,0.6-1.1,1.5-1.2,2.5c-0.1,1,0.3,1.9,0.9,2.6
					c1.3,1.5,3.6,1.6,5,0.3l3.3-2.9c2.9-2.6,4.8-6.4,5-10.3l0.6-10.4L188,183.5z"/>
				<path id="XMLID_419_" d="M183.9,212.4c-2.1,0-4.1-0.9-5.5-2.5c-1.3-1.5-2-3.4-1.9-5.4c0.1-2,1-3.8,2.5-5.1l3.1-2.8
					c0.9-0.8,1.5-2,1.6-3.2l0.8-14l14.9,0.8l-0.8,14.3c-0.3,5-2.6,9.7-6.3,13l-3.3,2.9C187.4,211.7,185.7,212.4,183.9,212.4z
					 M186,181.2l-0.7,12.3c-0.1,1.7-0.9,3.3-2.1,4.4l-3.1,2.8c-1.1,1-1.8,2.4-1.9,3.9c-0.1,1.5,0.4,3,1.5,4.1
					c1.1,1.2,2.6,1.9,4.2,1.9c1.4,0,2.7-0.5,3.8-1.4l3.3-2.9c3.4-3,5.4-7.3,5.7-11.8l0.7-12.6L186,181.2z M183.9,209.4
					c-1.2,0-2.4-0.5-3.3-1.5c-0.8-0.9-1.2-2-1.1-3.2c0.1-1.2,0.6-2.3,1.5-3.1l3.1-2.8c1.5-1.4,2.4-3.2,2.6-5.3l0.6-11l8.9,0.5
					l-0.6,11.3c-0.2,4.2-2.2,8.1-5.3,10.9l-3.3,2.9C186,209,184.9,209.4,183.9,209.4z M188.8,184.4l-0.5,9.3
					c-0.1,2.5-1.3,4.8-3.1,6.5l-3.1,2.8c-0.5,0.5-0.9,1.1-0.9,1.9c0,0.7,0.2,1.4,0.7,1.9c1,1.1,2.7,1.2,3.8,0.2l3.3-2.9
					c2.8-2.5,4.5-6,4.7-9.7l0.5-9.6L188.8,184.4z"/>
			</g>
		</g>
		<g id="XMLID_404_">
			<g id="XMLID_504_">
				<path id="XMLID_400_" d="M215.6,315.3c-0.1,0-0.3,0-0.4,0l-33.9-1.9c-4.3-0.2-7.5-3.9-7.3-8.2l1.7-30.6c0.1-2.1,1-4,2.6-5.3
					c1.5-1.4,3.5-2.1,5.6-2l11.5,0.6c7.8,0.4,14.4-5.5,14.9-13.3l0.4-7.4c0.2-4.4,4.1-7.8,8.5-7.6c2.1,0.1,4.1,1.1,5.6,2.7
					c1.4,1.6,2.2,3.7,2,5.8l-3.3,59.8C223.1,312.1,219.7,315.3,215.6,315.3z M183.4,270.3c-1.2,0-2.3,0.4-3.1,1.2
					c-0.9,0.8-1.5,2-1.6,3.3l-1.7,30.6c-0.1,2.6,1.9,4.8,4.5,5l33.9,1.9c1.3,0.1,2.5-0.4,3.4-1.2c0.9-0.8,1.5-2,1.6-3.3l3.3-59.8
					c0.2-2.8-2-5.2-4.8-5.3c-2.8-0.1-5.2,2-5.3,4.8l-0.4,7.4c-0.5,9.4-8.6,16.7-18.1,16.1l-11.5-0.6
					C183.5,270.3,183.5,270.3,183.4,270.3z"/>
				<path id="XMLID_405_" d="M215.6,316.1c-0.2,0-0.3,0-0.5,0l-33.9-1.9c-4.7-0.3-8.4-4.3-8.1-9.1l1.7-30.6c0.1-2.3,1.1-4.4,2.9-5.9
					c1.7-1.5,3.9-2.3,6.2-2.2l11.5,0.6c7.3,0.4,13.6-5.2,14-12.5l0.4-7.4c0.3-4.9,4.5-8.7,9.4-8.4c2.4,0.1,4.6,1.2,6.2,3
					c1.6,1.8,2.4,4.1,2.3,6.4l-3.3,59.8C223.9,312.6,220.2,316.1,215.6,316.1z M183.4,268.2c-1.7,0-3.3,0.6-4.6,1.7
					c-1.4,1.2-2.2,2.9-2.3,4.7l-1.7,30.6c-0.2,3.8,2.7,7,6.5,7.2l33.9,1.9c3.8,0.2,7-2.7,7.2-6.5l3.3-59.8c0.1-1.9-0.5-3.8-1.8-5.2
					c-1.3-1.4-3-2.3-5-2.4c-4-0.2-7.3,2.8-7.6,6.8l-0.4,7.4c-0.5,8.2-7.6,14.6-15.8,14.1l-11.5-0.6
					C183.6,268.2,183.5,268.2,183.4,268.2z M215.6,313.1c-0.1,0-0.2,0-0.3,0l-33.9-1.9c-1.5-0.1-2.9-0.7-3.9-1.9
					c-1-1.1-1.5-2.5-1.4-4l1.7-30.6c0.1-1.5,0.7-2.9,1.9-3.9c1.1-1,2.5-1.5,4-1.4l11.5,0.6c8.9,0.5,16.6-6.4,17.1-15.3l0.4-7.4
					c0.2-3.2,3-5.7,6.2-5.6c3.3,0.2,5.8,3,5.6,6.2l-3.3,59.8c-0.1,1.5-0.7,2.9-1.9,3.9C218.3,312.6,217,313.1,215.6,313.1z
					 M183.4,271.2c-0.9,0-1.9,0.3-2.6,1c-0.8,0.7-1.2,1.6-1.3,2.7l-1.7,30.6c-0.1,2.1,1.5,3.9,3.6,4.1l33.9,1.9c1,0.1,2-0.3,2.8-1
					s1.2-1.6,1.3-2.7l3.3-59.8c0.1-2.3-1.6-4.3-3.9-4.4c-2.3-0.2-4.3,1.6-4.4,3.9l-0.4,7.4c-0.6,9.9-9.1,17.5-19,17l-11.5-0.6
					C183.5,271.2,183.4,271.2,183.4,271.2z"/>
			</g>
		</g>
	</g>
	<g id="XMLID_445_">
		<g id="XMLID_499_">
			<path id="XMLID_155_" class="st1" d="M349.5,381.8H163c-4.6,0-8.4-3.7-8.4-8.4v-112h203.2v112C357.9,378,354.1,381.8,349.5,381.8
				z"/>
		</g>
		<g id="XMLID_500_">
			<path id="XMLID_392_" d="M350.3,383.3h-188c-5,0-9.1-4.1-9.1-9.1V261.4c0-0.8,0.7-1.5,1.5-1.5h203.2c0.8,0,1.5,0.7,1.5,1.5v112.7
				C359.4,379.2,355.3,383.3,350.3,383.3z M156.2,262.9v111.2c0,3.4,2.7,6.1,6.1,6.1h188c3.4,0,6.1-2.7,6.1-6.1V262.9H156.2z"/>
			<path id="XMLID_395_" d="M350.3,384.1h-188c-5.5,0-10-4.5-10-10V261.4c0-1.3,1.1-2.4,2.4-2.4h203.2c1.3,0,2.4,1.1,2.4,2.4v112.7
				C360.2,379.7,355.8,384.1,350.3,384.1z M154.7,260.8c-0.3,0-0.6,0.3-0.6,0.6v112.7c0,4.5,3.7,8.2,8.2,8.2h188
				c4.5,0,8.2-3.7,8.2-8.2V261.4c0-0.4-0.3-0.6-0.6-0.6H154.7z M350.3,381.1h-188c-3.8,0-7-3.1-7-7V262h201.9v112.1
				C357.2,378,354.1,381.1,350.3,381.1z M157,263.8v110.4c0,2.9,2.3,5.2,5.2,5.2h188c2.9,0,5.2-2.3,5.2-5.2V263.8H157z"/>
		</g>
	</g>
	<g id="XMLID_479_">
		<g id="XMLID_492_">
			<polygon id="XMLID_154_" class="st1" points="378.7,346 133.3,346 154.7,261 357.9,261 			"/>
		</g>
		<g id="XMLID_493_">
			<path id="XMLID_384_" d="M378.7,350H133.3c-0.5,0-0.9-1.3-1.2-1.7c-0.3-0.4-0.4-1.4-0.3-1.8l21.3-84.2c0.2-0.7,0.8-0.3,1.5-0.3
				h203.2c0.7,0,1.3-0.6,1.5,0.1l20.8,84.4c0.1,0.4,0,1.7-0.3,2.1C379.6,349,379.1,350,378.7,350z M135.3,346h241.5l-20.1-82H155.8
				L135.3,346z"/>
			<path id="XMLID_387_" d="M378.7,350H133.3c-0.8,0-1.3-0.5-1.6-1.2c-0.1-0.1-0.2-0.2-0.2-0.2c-0.5-0.6-0.6-1.8-0.4-2.4l21.3-84.1
				c0.3-1.2,1.4-1.1,1.8-1c0.1,0,0.3,0,0.4,0h203.2c0.1,0,0.3,0,0.4,0c0.3-0.1,0.8-0.2,1.3,0.1c0.2,0.1,0.5,0.4,0.6,0.8l20.8,84.5
				c0.1,0.6,0.1,2-0.4,2.7c-0.1,0.1-0.1-0.1-0.2,0C380,349.5,379.5,350,378.7,350z M133.5,349h245c0.1,0,0.3-0.5,0.4-0.6
				s0.2-0.3,0.3-0.4c0.1-0.2,0.2-1,0.1-1.3l-20.7-83.9c-0.2,0.1-0.5,0.2-0.8,0.2H154.7c-0.2,0-0.4-0.1-0.6-0.2c0,0-0.1-0.1-0.1-0.1
				l-21.3,83.9c-0.1,0.2,0,0.9,0.1,1c0.1,0.1,0.2,0.4,0.4,0.6C133.2,348.5,133.4,349,133.5,349z M377.8,347H134.2l21-84h202.1
				l0.2,0.8L377.8,347z M136.3,345h239.4L356,265H156.5L136.3,345z"/>
		</g>
	</g>
</g>
</svg>
