<?xml version="1.0" encoding="utf-8"?>
<!-- Generator: Adobe Illustrator 19.0.0, SVG Export Plug-In . SVG Version: 6.00 Build 0)  -->
<svg version="1.1" id="Layer_1" xmlns="http://www.w3.org/2000/svg" xmlns:xlink="http://www.w3.org/1999/xlink" x="0px" y="0px"
	 viewBox="0 0 512 512" style="enable-background:new 0 0 512 512;" xml:space="preserve">
<style type="text/css">
	.st0{fill:#CAFF76;}
	.st1{fill:#FFFFFF;}
</style>
<circle id="XMLID_3_" class="st0" cx="256" cy="256" r="256"/>
<g id="XMLID_84_">
	<g id="XMLID_27_">
		<g id="XMLID_37_">
			<g id="XMLID_39_">
				<g id="XMLID_122_">
					<path id="XMLID_577_" class="st1" d="M216.5,122.5c6.2,2.7,10.2,6.3,10.2,6.3c-2,28.8-25.8,50.1-25.8,50.1h-25.8h-25.8
						c0,0-23.8-21.3-25.8-50.1c0,0,4-3.6,10.2-6.3c10.3-4.5,26.8-6.6,41.4,14.2C189.6,115.9,206.2,118,216.5,122.5z"/>
				</g>
			</g>
			<g id="XMLID_38_">
				<g id="XMLID_121_">
					<path id="XMLID_576_" class="st1" d="M239.1,339.4c0.3,4.4,0.1,8.4-0.6,11.6c0,0-28.3,9.9-63.5,8.9c-35.2,1-63.5-8.9-63.5-8.9
						c-0.7-3.2-0.8-7.2-0.6-11.6c-31.4,2.5-52-9.3-52-9.3c16.9-81.9,90.3-151.3,90.3-151.3h25.8h25.8c0,0,73.4,69.5,90.3,151.3
						C291.2,330.2,270.6,341.9,239.1,339.4z"/>
				</g>
			</g>
		</g>
		<g id="XMLID_36_">
			<g id="XMLID_100_">
				<path id="XMLID_328_" d="M102.2,341.8c-26.6,0-43.5-9.4-44.2-9.9c-0.7-0.4-1.1-1.3-1-2.1c16.8-81.5,90.1-151.7,90.9-152.4
					c0.8-0.8,2.1-0.7,2.8,0.1c0.8,0.8,0.7,2.1-0.1,2.8c-0.7,0.7-72.3,69.1-89.4,148.8c4.9,2.4,23.6,10.4,49.6,8.4
					c1.1-0.1,2,0.7,2.1,1.8c0.1,1.1-0.7,2-1.8,2.1C108.1,341.7,105.1,341.8,102.2,341.8z"/>
				<path id="XMLID_329_" d="M102.2,342.8c-26.9,0-44-9.6-44.7-10c-1.1-0.6-1.7-1.9-1.4-3.2c16.9-81.8,90.4-152.2,91.2-152.9
					c1.2-1.1,3.1-1.1,4.2,0.1c0.5,0.6,0.8,1.3,0.8,2.1c0,0.8-0.4,1.5-0.9,2.1c-0.7,0.7-71.6,68.5-89,147.5
					c5.9,2.8,23.8,9.9,48.4,7.9c1.6-0.1,3.1,1.1,3.2,2.7c0.1,0.8-0.2,1.6-0.7,2.2c-0.5,0.6-1.2,1-2,1
					C108.3,342.6,105.2,342.8,102.2,342.8z M149.3,177.9c-0.2,0-0.5,0.1-0.7,0.3c-0.7,0.7-73.9,70.6-90.6,151.8
					c-0.1,0.4,0.1,0.8,0.5,1.1c0.7,0.4,17.4,9.7,43.8,9.7c2.9,0,5.9-0.1,8.8-0.3c0.3,0,0.5-0.1,0.7-0.3c0.2-0.2,0.3-0.5,0.2-0.7
					c0-0.5-0.5-0.9-1.1-0.9c-26.2,2.1-45-5.9-50.1-8.4l-0.7-0.3l0.2-0.8c17.2-80,89-148.6,89.7-149.3c0.2-0.2,0.3-0.4,0.3-0.7
					c0-0.3-0.1-0.5-0.3-0.7C149.8,178,149.5,177.9,149.3,177.9z"/>
			</g>
		</g>
		<g id="XMLID_35_">
			<g id="XMLID_99_">
				<path id="XMLID_324_" d="M247.9,341.8c-2.9,0-5.8-0.1-8.9-0.4c-1.1-0.1-1.9-1-1.8-2.1c0.1-1.1,1-1.9,2.1-1.8
					c26.1,2.1,44.7-6,49.6-8.4c-17.1-79.7-88.7-148.1-89.4-148.8c-0.8-0.8-0.8-2-0.1-2.8c0.8-0.8,2-0.8,2.8-0.1
					c0.7,0.7,74.1,70.8,90.9,152.4c0.2,0.8-0.2,1.7-1,2.1C291.4,332.3,274.5,341.8,247.9,341.8z"/>
				<path id="XMLID_325_" d="M247.9,342.8c-3,0-6-0.1-9-0.4c-0.8-0.1-1.5-0.4-2-1c-0.5-0.6-0.8-1.4-0.7-2.2c0.1-1.6,1.5-2.9,3.2-2.7
					c24.7,1.9,42.6-5.2,48.4-7.9c-17.3-79-88.2-146.9-89-147.5c-0.6-0.5-0.9-1.3-0.9-2.1c0-0.8,0.3-1.6,0.8-2.1
					c1.1-1.2,3-1.2,4.2-0.1c0.7,0.7,74.3,71.1,91.2,152.9c0.3,1.3-0.3,2.6-1.4,3.2C291.9,333.2,274.8,342.8,247.9,342.8z
					 M239.1,338.4c-0.5,0-0.9,0.4-1,0.9c0,0.3,0.1,0.5,0.2,0.7c0.2,0.2,0.4,0.3,0.7,0.3c2.9,0.2,5.9,0.3,8.9,0.3
					c26.4,0,43.1-9.3,43.8-9.7c0.4-0.2,0.6-0.6,0.5-1.1c-16.7-81.2-89.9-151.1-90.6-151.8c-0.4-0.4-1-0.4-1.4,0
					c-0.2,0.2-0.3,0.4-0.3,0.7c0,0.3,0.1,0.5,0.3,0.7c0.7,0.7,72.5,69.4,89.7,149.3l0.2,0.8l-0.7,0.3
					C284.2,332.5,265.5,340.5,239.1,338.4C239.2,338.4,239.2,338.4,239.1,338.4z"/>
			</g>
		</g>
		<g id="XMLID_34_">
			<g id="XMLID_98_">
				<path id="XMLID_320_" d="M180,362c-1.6,0-3.3,0-4.9-0.1c-35.2,1-63.9-8.9-64.2-9c-0.7-0.2-1.1-0.8-1.3-1.5
					c-0.7-3.2-0.9-7.3-0.6-12.1c1.4-24.2,14.5-60.9,15.1-62.4c0.4-1,1.5-1.6,2.5-1.2c1,0.4,1.6,1.5,1.2,2.5
					c-0.1,0.4-13.4,37.7-14.8,61.3c-0.2,3.9-0.1,7.2,0.3,9.9c5.5,1.7,31.1,9.3,61.7,8.5c0,0,0.1,0,0.1,0c30.7,0.9,56.3-6.7,61.7-8.5
					c0.4-2.7,0.5-6,0.3-9.9c-1.4-23.7-14.7-60.9-14.8-61.3c-0.4-1,0.2-2.2,1.2-2.5c1-0.4,2.2,0.2,2.5,1.2
					c0.6,1.5,13.6,38.2,15.1,62.4c0.3,4.8,0.1,8.9-0.6,12.1c-0.1,0.7-0.6,1.2-1.3,1.5C239,353,212.9,362,180,362z"/>
				<path id="XMLID_321_" d="M180,363L180,363c-1.6,0-3.3,0-4.9-0.1c-35.2,1-64.2-9-64.5-9.1c-1-0.3-1.7-1.2-1.9-2.2
					c-0.7-3.3-0.9-7.5-0.6-12.4c1.5-24.3,14.6-61.1,15.1-62.7c0.3-0.7,0.8-1.3,1.5-1.7c0.7-0.3,1.5-0.4,2.3-0.1
					c1.5,0.6,2.4,2.3,1.8,3.8c-0.1,0.4-13.4,37.5-14.8,61c-0.2,3.5-0.1,6.6,0.2,9.1c6.1,1.9,31.2,9.1,60.8,8.2c0,0,0.1,0,0.2,0
					c29.6,0.9,54.7-6.3,60.8-8.2c0.4-2.5,0.4-5.6,0.2-9.1c-1.4-23.7-14.6-60.7-14.8-61c-0.3-0.8-0.2-1.6,0.1-2.3
					c0.3-0.7,0.9-1.3,1.7-1.5c0.7-0.3,1.6-0.2,2.3,0.1c0.7,0.3,1.3,0.9,1.5,1.7c0.6,1.6,13.7,38.3,15.1,62.7
					c0.3,4.9,0.1,9.1-0.6,12.4c-0.2,1-1,1.8-1.9,2.2C239.3,353.9,213,363,180,363z M175.1,360.9c1.7,0,3.3,0.1,4.9,0.1
					c32.6,0,58.7-9,58.9-9.1c0.3-0.1,0.6-0.4,0.6-0.7c0.7-3.1,0.9-7.1,0.6-11.8c-1.4-24.1-14.4-60.6-15-62.1
					c-0.1-0.2-0.3-0.4-0.5-0.6c-0.2-0.1-0.5-0.1-0.8,0c-0.2,0.1-0.4,0.3-0.6,0.5c-0.1,0.2-0.1,0.5,0,0.8
					c0.1,0.4,13.5,37.6,14.9,61.6c0.2,4,0.1,7.4-0.3,10.2l-0.1,0.6l-0.6,0.2c-4.9,1.6-31,9.4-62,8.5c-31,0.9-57.2-6.9-62.1-8.5
					l-0.6-0.2l-0.1-0.6c-0.5-2.8-0.6-6.2-0.3-10.2c1.4-23.8,14.8-61.2,14.9-61.6c0.2-0.5-0.1-1.1-0.6-1.3c-0.2-0.1-0.5-0.1-0.8,0
					c-0.2,0.1-0.4,0.3-0.5,0.6c-0.6,1.5-13.6,38.1-15,62.1c-0.3,4.7-0.1,8.7,0.6,11.8c0.1,0.3,0.3,0.6,0.6,0.7
					C111.5,352,140.1,361.9,175.1,360.9z"/>
			</g>
		</g>
		<g id="XMLID_33_">
			<g id="XMLID_97_">
				<path id="XMLID_316_" d="M200.9,180.8c-0.5,0-1.1-0.2-1.5-0.7c-0.7-0.8-0.7-2.1,0.2-2.8c0.2-0.2,22.7-20.7,25.1-47.8
					c-1.4-1.1-4.6-3.4-8.9-5.3c-10.3-4.5-25.4-5.8-39,13.5c-0.4,0.5-1,0.8-1.6,0.8c-0.6,0-1.3-0.3-1.6-0.8
					c-13.5-19.3-28.7-18-39-13.5c-4.3,1.9-7.6,4.2-8.9,5.3c2.4,27.1,24.8,47.6,25.1,47.8c0.8,0.7,0.9,2,0.2,2.8
					c-0.7,0.8-2,0.9-2.8,0.2c-1-0.9-24.4-22.2-26.5-51.5c0-0.6,0.2-1.2,0.7-1.6c0.2-0.2,4.3-3.8,10.7-6.6c9.2-4,26.7-7.5,42.2,12.7
					c15.5-20.2,33-16.7,42.2-12.7c6.4,2.8,10.6,6.4,10.7,6.6c0.5,0.4,0.7,1,0.7,1.6c-2,29.2-25.5,50.6-26.5,51.5
					C201.8,180.7,201.4,180.8,200.9,180.8z"/>
				<path id="XMLID_317_" d="M200.9,181.8c-0.8,0-1.7-0.4-2.2-1c-1.1-1.2-1-3.1,0.2-4.2c0.2-0.2,22.1-20.1,24.7-46.6
					c-1.6-1.2-4.5-3.2-8.3-4.9c-10-4.3-24.6-5.6-37.8,13.2c-0.6,0.8-1.5,1.3-2.4,1.3s-1.9-0.5-2.4-1.3
					c-13.2-18.7-27.8-17.5-37.8-13.2c-3.8,1.6-6.7,3.6-8.3,4.9c2.6,26.4,24.5,46.4,24.7,46.6c1.2,1.1,1.3,3,0.2,4.2
					c-1.1,1.2-3,1.3-4.2,0.2c-1-0.9-24.7-22.5-26.8-52.1c-0.1-0.9,0.3-1.8,1-2.4c0.2-0.2,4.4-3.9,11-6.8c9.2-4,26.8-7.7,42.6,12
					c15.7-19.6,33.4-16,42.6-12c6.6,2.9,10.8,6.6,11,6.8c0.7,0.6,1.1,1.5,1,2.4c-2,29.7-25.8,51.2-26.8,52.1
					C202.3,181.6,201.6,181.8,200.9,181.8z M203.1,120.5c4.8,0,9.2,1.2,13,2.9c4.4,1.9,7.6,4.2,9.2,5.4l0.4,0.3l0,0.5
					c-2.4,27.5-25.2,48.2-25.4,48.4c-0.4,0.4-0.4,1-0.1,1.4c0.3,0.4,1,0.4,1.4,0.1c1-0.9,24.1-21.9,26.1-50.8c0-0.3-0.1-0.6-0.3-0.8
					c-0.2-0.1-4.2-3.7-10.5-6.4c-8.8-3.8-25.9-7.3-41,12.4l-0.8,1l-0.8-1c-15.1-19.7-32.2-16.2-41-12.4c-6.3,2.7-10.3,6.3-10.5,6.4
					c-0.2,0.2-0.3,0.5-0.3,0.8c2,28.8,25.1,49.9,26.1,50.8c0.4,0.4,1,0.3,1.4-0.1c0.4-0.4,0.3-1-0.1-1.4c-0.2-0.2-23-20.9-25.4-48.4
					l0-0.5l0.4-0.3c1.5-1.2,4.8-3.6,9.2-5.4c10.7-4.6,26.3-6,40.2,13.9c0.4,0.5,1.3,0.5,1.6,0C184.8,124.5,194.5,120.5,203.1,120.5z
					"/>
			</g>
		</g>
		<g id="XMLID_32_">
			<g id="XMLID_96_">
				<path id="XMLID_312_" d="M133.7,124.5c-0.7,0-1.3-0.3-1.7-1c-12.7-21.1,4.1-43.4,4.3-43.6c0.7-0.9,1.9-1,2.8-0.4
					c0.9,0.7,1,1.9,0.4,2.8l0,0c-0.2,0.2-15.3,20.4-4.1,39.1c0.6,0.9,0.3,2.2-0.7,2.7C134.4,124.4,134,124.5,133.7,124.5z"/>
				<path id="XMLID_313_" d="M133.7,125.5c-1,0-2-0.6-2.6-1.4c-13-21.6,4.2-44.5,4.4-44.7c1-1.3,2.9-1.5,4.2-0.5
					c1.3,1,1.5,2.9,0.5,4.2c-0.1,0.2-14.9,19.9-4,38c0.4,0.7,0.5,1.5,0.3,2.3c-0.2,0.8-0.7,1.4-1.4,1.8
					C134.8,125.3,134.2,125.5,133.7,125.5z M137.9,80.1c-0.3,0-0.6,0.1-0.8,0.4c-0.2,0.2-16.5,22.1-4.3,42.5
					c0.3,0.5,0.9,0.6,1.4,0.3c0.5-0.3,0.6-0.9,0.3-1.4c-11.6-19.3,4-40,4.1-40.3c0.3-0.4,0.3-1.1-0.2-1.4
					C138.3,80.2,138.1,80.1,137.9,80.1z"/>
			</g>
		</g>
		<g id="XMLID_31_">
			<g id="XMLID_95_">
				<path id="XMLID_308_" d="M216.5,124.5c-0.3,0-0.7-0.1-1-0.3c-0.9-0.6-1.2-1.8-0.7-2.7c11.3-18.7-3.9-38.9-4.1-39.1
					c-0.7-0.9-0.5-2.1,0.4-2.8c0.9-0.7,2.1-0.5,2.8,0.4c0.2,0.2,17,22.5,4.3,43.6C217.8,124.1,217.2,124.5,216.5,124.5z"/>
				<path id="XMLID_309_" d="M216.5,125.5c-0.5,0-1.1-0.1-1.5-0.4c-0.7-0.4-1.2-1.1-1.4-1.8c-0.2-0.8-0.1-1.6,0.3-2.3
					c10.9-18.1-3.8-37.8-4-38c-1-1.3-0.8-3.2,0.6-4.2c1.3-1,3.2-0.8,4.2,0.5c0.2,0.2,17.4,23.1,4.4,44.7
					C218.5,124.9,217.5,125.5,216.5,125.5z M212.3,80.1c-0.2,0-0.4,0.1-0.6,0.2c-0.4,0.3-0.5,1-0.2,1.4c0.2,0.2,15.7,21,4.1,40.3
					c-0.1,0.2-0.2,0.5-0.1,0.7c0.1,0.3,0.2,0.5,0.5,0.6c0.5,0.3,1.1,0.1,1.4-0.3c12.3-20.4-4.1-42.3-4.3-42.5
					C212.9,80.2,212.6,80.1,212.3,80.1z"/>
			</g>
		</g>
		<g id="XMLID_30_">
			<g id="XMLID_94_">
				<path id="XMLID_304_" d="M213.8,180.8h-78.4c-1.1,0-2-0.9-2-2c0-1.1,0.9-2,2-2h78.4c1.1,0,2,0.9,2,2
					C215.8,179.9,214.9,180.8,213.8,180.8z"/>
				<path id="XMLID_305_" d="M213.8,181.8h-78.4c-1.6,0-3-1.3-3-3s1.3-3,3-3h78.4c1.6,0,3,1.3,3,3S215.4,181.8,213.8,181.8z
					 M135.4,177.9c-0.5,0-1,0.4-1,1s0.4,1,1,1h78.4c0.5,0,1-0.4,1-1s-0.4-1-1-1H135.4z"/>
			</g>
		</g>
		<g id="XMLID_28_">
			<g id="XMLID_93_">
				<path id="XMLID_300_" d="M192,238.9c-0.1,0-0.3,0-0.4,0c-1.1-0.2-1.8-1.3-1.6-2.3c6.9-34.7-10.4-51.4-14.9-55.2
					c-4.7,3.7-21.8,20.2-14.9,55.2c0.2,1.1-0.5,2.1-1.6,2.3c-1.1,0.2-2.1-0.5-2.3-1.6c-8.3-42.2,16.7-59.4,17.7-60.1
					c0.7-0.4,1.5-0.4,2.2,0c1.1,0.7,26.1,17.8,17.7,60.1C193.7,238.2,192.9,238.9,192,238.9z"/>
				<path id="XMLID_301_" d="M158.2,239.9c-0.6,0-1.2-0.2-1.7-0.5c-0.7-0.4-1.1-1.1-1.3-1.9c-8.5-42.9,17.1-60.4,18.1-61.1
					c1-0.7,2.3-0.7,3.3,0c1.1,0.7,26.6,18.2,18.1,61.1c-0.3,1.6-1.9,2.7-3.5,2.3c-0.8-0.2-1.5-0.6-1.9-1.3c-0.4-0.7-0.6-1.5-0.4-2.2
					c6.4-32.5-8.3-48.8-14-53.7c-5.7,4.8-20.4,20.9-13.9,53.7c0.2,0.8,0,1.6-0.4,2.2c-0.4,0.7-1.1,1.1-1.9,1.3
					C158.6,239.9,158.4,239.9,158.2,239.9z M175.1,180.1l0.6,0.5c5.3,4.4,22.2,21.3,15.3,56.1c-0.1,0.3,0,0.5,0.1,0.7
					s0.4,0.4,0.6,0.4c0.5,0.1,1.1-0.3,1.2-0.8c8.2-41.6-16.2-58.4-17.3-59.1c-0.3-0.2-0.8-0.2-1.1,0c-1,0.7-25.5,17.5-17.3,59.1
					c0.1,0.3,0.2,0.5,0.4,0.6c0.2,0.1,0.5,0.2,0.7,0.1c0.3-0.1,0.5-0.2,0.6-0.4s0.2-0.5,0.1-0.7c-7-35.2,9.9-51.9,15.3-56.2
					L175.1,180.1z"/>
			</g>
		</g>
	</g>
	<g id="XMLID_83_">
		<g id="XMLID_74_">
			<g id="XMLID_82_">
				<g id="XMLID_120_">
					<path id="XMLID_575_" class="st1" d="M206.2,386.1l-2.1,8c-0.8,3-4,4.6-6.9,3.5l-21.9-8.7c-2.5-1-3.8-3.7-3-6.2l2.6-9
						L206.2,386.1z"/>
				</g>
			</g>
			<g id="XMLID_81_">
				<g id="XMLID_119_">
					<path id="XMLID_574_" class="st1" d="M452.8,382.6c0.7,2.5-0.6,5.2-3.1,6.2l-21.9,8.7c-2.9,1.2-6.1-0.5-6.9-3.5l-2.1-8
						l31.4-12.5L452.8,382.6z"/>
				</g>
			</g>
			<g id="XMLID_80_">
				<g id="XMLID_118_">
					<path id="XMLID_573_" class="st1" d="M396.5,185.4l53.7,188.2l-31.4,12.5l-31.3-118.1c-0.3-1.1-1.9-0.9-1.9,0.2l-0.2,148.2
						c0,8-6.5,14.5-14.5,14.5h-6.5v-0.8c-84.3-141.6,6.4-255.6,6.4-255.6l0.1-0.2L396.5,185.4z"/>
				</g>
			</g>
			<g id="XMLID_79_">
				<g id="XMLID_117_">
					<path id="XMLID_572_" class="st1" d="M253.4,174.6c3.4,4.3,88.9,116.7,6.3,255.5v0.8H254c-8,0-14.5-6.5-14.5-14.5l-0.2-148.2
						c0-1.1-1.6-1.3-1.9-0.2l-31.3,118.1l-31.4-12.5l53.8-188.2L253.4,174.6z"/>
				</g>
			</g>
			<g id="XMLID_77_">
				<g id="XMLID_116_">
					<path id="XMLID_571_" class="st1" d="M354.1,167h0.1l16.8,7.3l-0.1,0.2c0,0-90.6,114-6.4,255.6v0.8H259.7v-0.8
						c82.6-138.8-2.9-251.2-6.3-255.5l17.6-7.7h0.1c5.2-15.3,17.9-24.4,23-27.5c1.3-0.8,2.8-1.2,4.3-1.2H313h13.8
						c1.5,0,3,0.4,4.3,1.2C336.2,142.5,348.9,151.6,354.1,167C354.1,166.9,354.1,167,354.1,167z"/>
				</g>
			</g>
		</g>
		<g id="XMLID_16_">
			<g id="XMLID_17_">
				<g id="XMLID_26_">
					<g id="XMLID_92_">
						<path id="XMLID_296_" d="M371,432.9H254c-9.1,0-16.5-7.4-16.5-16.4L237.4,276L206,394.6c-0.5,2-1.9,3.6-3.7,4.5
							c-1.8,0.9-4,1-5.8,0.2l-21.9-8.7c-3.4-1.3-5.2-5-4.2-8.6l2.6-9l53.8-188.2c0.2-0.6,0.6-1,1.1-1.3l42.4-18.5
							c0.2-0.1,0.5-0.2,0.8-0.2h0.3c1.1,0,2,0.9,2,2c0,1.1-0.8,1.9-1.9,2l-41.2,17.9l-56.1,196.3c-0.4,1.6,0.4,3.2,1.9,3.8l21.9,8.7
							c0.9,0.3,1.8,0.3,2.6-0.1c0.8-0.4,1.4-1.1,1.6-2l33.4-126.2c0.4-1.4,1.7-2.4,3.2-2.2c1.5,0.2,2.6,1.4,2.6,2.9l0.2,148.2
							c0,6.9,5.6,12.5,12.5,12.5h117c6.9,0,12.5-5.6,12.5-12.5l0.2-148.2c0-1.5,1.1-2.7,2.6-2.9c1.5-0.2,2.8,0.7,3.2,2.2l33.4,126.2
							c0.2,0.9,0.8,1.6,1.6,2c0.8,0.4,1.7,0.5,2.6,0.1L449,387c1.5-0.6,2.3-2.2,1.9-3.8l-56.1-196.3l-41.4-18.1
							c-1-0.4-1.5-1.6-1-2.6c0.4-1,1.6-1.5,2.6-1l42.3,18.4c0.5,0.2,1,0.7,1.1,1.3l56.3,197.2c1,3.5-0.8,7.2-4.2,8.6l-21.9,8.7
							c-1.9,0.8-4,0.7-5.8-0.2c-1.8-0.9-3.2-2.6-3.7-4.5L387.7,276l-0.2,140.4C387.4,425.5,380.1,432.9,371,432.9z"/>
						<path id="XMLID_297_" d="M371,433.9H254c-9.6,0-17.4-7.8-17.5-17.4l-0.2-132.8l-29.4,111.2c-0.6,2.3-2.1,4.1-4.2,5.2
							c-2.1,1-4.5,1.1-6.7,0.3l-21.9-8.7c-3.9-1.5-6-5.7-4.8-9.8l2.6-9l53.8-188.2c0.2-0.9,0.9-1.6,1.7-1.9l42.4-18.5
							c0.4-0.2,0.8-0.2,1.2-0.2h0.3c1.6,0,3,1.3,3,3c0,1.5-1.1,2.8-2.6,3l-40.6,17.7l-56,195.9c-0.3,1.1,0.2,2.2,1.3,2.6l21.9,8.7
							c0.6,0.2,1.2,0.2,1.8-0.1c0.6-0.3,1-0.8,1.1-1.4l33.4-126.2c0.5-1.9,2.3-3.2,4.3-2.9c2,0.3,3.4,1.9,3.4,3.9l0.2,148.2
							c0,6.3,5.2,11.5,11.5,11.5h117c6.3,0,11.5-5.2,11.5-11.5l0.2-148.2c0-2,1.4-3.6,3.4-3.9c2-0.3,3.8,1,4.3,2.9l33.4,126.2
							c0.2,0.6,0.6,1.1,1.1,1.4c0.6,0.3,1.2,0.3,1.8,0.1l21.9-8.7c1.1-0.4,1.6-1.5,1.3-2.6L394,187.6l-41-17.9
							c-1.5-0.7-2.2-2.4-1.5-3.9c0.7-1.5,2.4-2.2,3.9-1.5l42.3,18.4c0.8,0.4,1.4,1.1,1.7,1.9l56.3,197.2c1.2,4-0.9,8.2-4.8,9.8
							l-21.9,8.7c-2.1,0.9-4.6,0.8-6.7-0.3c-2.1-1-3.6-2.9-4.2-5.2l-29.4-111.2l-0.2,132.8C388.4,426.1,380.6,433.9,371,433.9z
							 M238.4,268.4l0.2,148c0,8.5,6.9,15.4,15.5,15.4h117c8.5,0,15.5-6.9,15.5-15.4l0.2-148L420,394.4c0.5,1.7,1.6,3.1,3.2,3.9
							c1.6,0.8,3.4,0.9,5,0.2l21.9-8.7c3-1.2,4.5-4.3,3.7-7.4l-56.3-197.2c-0.1-0.3-0.3-0.5-0.6-0.6l-42.3-18.4
							c-0.5-0.2-1.1,0-1.3,0.5c-0.2,0.5,0,1.1,0.5,1.3l41.8,18.2l0.1,0.5l56.1,196.3c0.6,2.1-0.5,4.2-2.5,5l-21.9,8.7
							c-1.1,0.5-2.3,0.4-3.4-0.1c-1.1-0.5-1.8-1.5-2.2-2.6l-33.4-126.2c-0.3-1-1.2-1.6-2.1-1.4c-1,0.1-1.7,0.9-1.7,1.9l-0.2,148.2
							c0,7.4-6.1,13.5-13.5,13.5H254c-7.4,0-13.5-6-13.5-13.5l-0.2-148.2c0-1-0.7-1.8-1.7-1.9c-1-0.1-1.9,0.5-2.1,1.4l-33.4,126.2
							c-0.3,1.2-1.1,2.1-2.2,2.6c-1.1,0.5-2.3,0.6-3.4,0.1l-21.9-8.7c-2-0.8-3-2.9-2.5-5l56.2-196.8l41.8-18.2l0.2,0
							c0.5,0,0.9-0.5,0.9-1c0-0.5-0.4-1-1-1H271c-0.1,0-0.3,0-0.4,0.1l-42.4,18.5c-0.3,0.1-0.5,0.3-0.6,0.6l-56.4,197.2
							c-0.9,3,0.7,6.2,3.6,7.4l21.9,8.7c1.6,0.7,3.5,0.6,5-0.2c1.6-0.8,2.7-2.2,3.2-3.9L238.4,268.4z"/>
					</g>
				</g>
				<g id="XMLID_25_">
					<g id="XMLID_91_">
						<path id="XMLID_292_" d="M364.5,432.1c-0.7,0-1.3-0.3-1.7-1c-19.4-32.5-31.1-66.3-34.8-100.5c-3-27.3-0.9-54.9,6.2-81.9
							c12.1-46.1,34.9-75.2,35.2-75.4c0.7-0.9,1.9-1,2.8-0.3c0.9,0.7,1,1.9,0.3,2.8c-0.2,0.3-22.6,28.8-34.5,74.1
							c-10.9,41.8-14.9,106.7,28.3,179.2c0.6,0.9,0.3,2.2-0.7,2.7C365.2,432,364.9,432.1,364.5,432.1z"/>
						<path id="XMLID_293_" d="M364.5,433.1c-1,0-2-0.6-2.6-1.5c-19.4-32.7-31.2-66.6-35-100.9c-3-27.4-0.9-55.1,6.2-82.3
							c12.2-46.4,35.1-75.5,35.3-75.8c1-1.3,2.9-1.5,4.2-0.5c1.3,1,1.5,2.9,0.5,4.2c-0.2,0.3-22.5,28.7-34.3,73.8
							c-10.9,41.6-14.8,106.3,28.1,178.4c0.4,0.7,0.5,1.5,0.3,2.3c-0.2,0.8-0.7,1.4-1.4,1.8C365.6,432.9,365.1,433.1,364.5,433.1z
							 M370.9,173.5c-0.3,0-0.6,0.1-0.8,0.4c-0.2,0.3-22.9,29.1-35,75.1c-7.1,26.9-9.1,54.4-6.2,81.6c3.7,34,15.4,67.6,34.7,100.1
							c0.3,0.5,0.9,0.6,1.4,0.3c0.2-0.1,0.4-0.4,0.5-0.6s0-0.5-0.1-0.7c-43.3-72.8-39.3-138-28.4-180c11.9-45.5,34.4-74.2,34.6-74.5
							c0.3-0.4,0.3-1.1-0.2-1.4C371.3,173.5,371.1,173.5,370.9,173.5z"/>
					</g>
				</g>
				<g id="XMLID_24_">
					<g id="XMLID_90_">
						<path id="XMLID_288_" d="M259.7,432.1c-0.3,0-0.7-0.1-1-0.3c-0.9-0.6-1.3-1.8-0.7-2.7c81.8-137.4-2.5-248.6-6.1-253.2
							l-0.1-0.2c-0.6-0.9-0.4-2.1,0.4-2.8c0.9-0.6,2.1-0.5,2.8,0.4l0.1,0.1c3.7,4.8,89.6,118,6.4,257.7
							C261,431.7,260.4,432.1,259.7,432.1z"/>
						<path id="XMLID_289_" d="M259.7,433.1c-0.5,0-1.1-0.1-1.5-0.4c-0.7-0.4-1.2-1.1-1.4-1.8c-0.2-0.8-0.1-1.6,0.3-2.3
							c81.5-136.8-2.4-247.5-6-252.1l-0.1-0.2c-1-1.4-0.7-3.2,0.6-4.2c1.3-1,3.2-0.7,4.1,0.6l0.1,0.1c3.7,4.8,90,118.6,6.5,258.8
							C261.7,432.5,260.7,433.1,259.7,433.1z M253.3,173.5c-0.2,0-0.4,0.1-0.6,0.2c-0.4,0.3-0.5,0.9-0.2,1.4l0.1,0.2
							c3.6,4.7,88.3,116.4,6.2,254.4c-0.1,0.2-0.2,0.5-0.1,0.8c0.1,0.3,0.2,0.5,0.5,0.6c0.5,0.3,1.1,0.1,1.4-0.3
							c82.8-139.1-2.6-251.9-6.3-256.6l-0.1-0.1C253.9,173.6,253.6,173.5,253.3,173.5z"/>
					</g>
				</g>
				<g id="XMLID_23_">
					<g id="XMLID_89_">
						<path id="XMLID_284_" d="M291.6,180c-0.1,0-0.1,0-0.2,0c-19.3-2.1-22.1-12.2-22.2-12.6c-0.1-0.4-0.1-0.8,0-1.1
							c5.4-15.9,18.5-25.3,23.8-28.6c1.6-1,3.5-1.5,5.4-1.5H313c1.1,0,2,0.9,2,2c0,1.1-0.9,2-2,2h-14.6c-1.2,0-2.3,0.3-3.3,0.9
							c-4.9,3-16.8,11.6-21.9,25.8c0.8,1.7,4.6,7.6,18.6,9.1c1.1,0.1,1.9,1.1,1.8,2.2C293.4,179.3,292.6,180,291.6,180z"/>
						<path id="XMLID_285_" d="M291.6,181c-0.1,0-0.2,0-0.3,0c-20-2.2-22.9-12.9-23-13.3c-0.1-0.6-0.1-1.1,0.1-1.7
							c5.5-16.2,18.8-25.8,24.3-29.1c1.8-1.1,3.8-1.7,5.9-1.7H313c1.6,0,3,1.3,3,3s-1.3,3-3,3h-14.6c-1,0-1.9,0.3-2.8,0.8
							c-4.7,2.9-16.2,11.2-21.4,24.9c1.1,2,5,6.8,17.6,8.2c1.6,0.2,2.8,1.7,2.6,3.3C294.4,179.9,293.1,181,291.6,181z M298.4,137.2
							c-1.7,0-3.4,0.5-4.8,1.4c-5.3,3.3-18.1,12.5-23.4,28.1c-0.1,0.2-0.1,0.4,0,0.6c0.1,0.4,2.7,9.8,21.3,11.8
							c0.5,0.1,1-0.3,1.1-0.9c0.1-0.5-0.3-1-0.9-1.1c-14.5-1.6-18.5-7.8-19.4-9.7l-0.2-0.4l0.1-0.4c5.3-14.6,17.4-23.3,22.3-26.3
							c1.1-0.7,2.5-1.1,3.8-1.1H313c0.5,0,1-0.4,1-1s-0.4-1-1-1H298.4z"/>
					</g>
				</g>
				<g id="XMLID_22_">
					<g id="XMLID_88_">
						<path id="XMLID_280_" d="M333.6,180c-1,0-1.9-0.8-2-1.8c-0.1-1.1,0.7-2.1,1.8-2.2c14-1.5,17.8-7.4,18.6-9.1
							c-5.1-14.2-17-22.8-21.9-25.8c-1-0.6-2.1-0.9-3.3-0.9H313c-1.1,0-2-0.9-2-2c0-1.1,0.9-2,2-2h13.8c1.9,0,3.8,0.5,5.4,1.5
							c5.4,3.3,18.4,12.7,23.8,28.6c0.1,0.2,0.1,0.4,0.1,0.6c0,0.2,0,0.4-0.1,0.6c-0.4,1.2-3.6,10.4-22.2,12.5
							C333.7,180,333.6,180,333.6,180z"/>
						<path id="XMLID_281_" d="M333.6,181c-1.5,0-2.8-1.1-3-2.7c-0.1-0.8,0.1-1.6,0.6-2.2c0.5-0.6,1.2-1,2-1.1
							c12.6-1.4,16.6-6.3,17.7-8.2c-5.1-13.7-16.6-22-21.4-24.9c-0.8-0.5-1.8-0.8-2.8-0.8H313c-1.6,0-3-1.3-3-3s1.3-3,3-3h13.8
							c2.1,0,4.1,0.6,5.9,1.7c5.5,3.4,18.7,12.9,24.3,29.1c0.1,0.3,0.2,0.6,0.2,1c0,0.3,0,0.6-0.1,0.9c-0.5,1.8-4.1,11.1-23.1,13.2
							C333.8,181,333.7,181,333.6,181z M313,137.2c-0.5,0-1,0.4-1,1s0.4,1,1,1h13.8c1.3,0,2.7,0.4,3.8,1.1
							c5,3.1,17.1,11.8,22.3,26.3l0.1,0.4l-0.2,0.4c-0.9,1.9-5,8.1-19.4,9.7c-0.3,0-0.5,0.2-0.7,0.4c-0.2,0.2-0.2,0.5-0.2,0.7
							c0.1,0.5,0.6,0.9,1.1,0.9c18-2,21.1-10.7,21.4-11.7c0-0.1,0.1-0.2,0.1-0.3c0-0.1,0-0.2-0.1-0.3c-5.3-15.6-18.2-24.8-23.4-28.1
							c-1.5-0.9-3.1-1.4-4.8-1.4H313z"/>
					</g>
				</g>
				<g id="XMLID_21_">
					<g id="XMLID_87_">
						<path id="XMLID_276_" d="M418.8,388.1c-0.8,0-1.5-0.5-1.8-1.3c-0.4-1,0.1-2.2,1.1-2.6l31.4-12.5c1-0.4,2.2,0.1,2.6,1.1
							c0.4,1-0.1,2.2-1.1,2.6l-31.4,12.5C419.3,388,419.1,388.1,418.8,388.1z"/>
						<path id="XMLID_277_" d="M418.8,389.1c-1.2,0-2.3-0.7-2.8-1.9c-0.3-0.7-0.3-1.5,0-2.3c0.3-0.7,0.9-1.3,1.6-1.6l31.4-12.5
							c1.5-0.6,3.3,0.1,3.9,1.7c0.3,0.7,0.3,1.5,0,2.3c-0.3,0.7-0.9,1.3-1.6,1.6l-31.4,12.5C419.6,389,419.2,389.1,418.8,389.1z
							 M450.2,372.6c-0.1,0-0.2,0-0.4,0.1l-31.4,12.5c-0.2,0.1-0.4,0.3-0.5,0.5c-0.1,0.2-0.1,0.5,0,0.8c0.2,0.5,0.8,0.8,1.3,0.6
							l31.4-12.5c0.2-0.1,0.4-0.3,0.5-0.5c0.1-0.2,0.1-0.5,0-0.8C451,372.9,450.6,372.6,450.2,372.6z"/>
					</g>
				</g>
				<g id="XMLID_18_">
					<g id="XMLID_86_">
						<path id="XMLID_272_" d="M206.2,388.1c-0.2,0-0.5,0-0.7-0.1l-31.4-12.5c-1-0.4-1.5-1.5-1.1-2.5c0.4-1,1.5-1.5,2.5-1.2
							c0,0,0.1,0,0.1,0l31.4,12.5c1,0.4,1.5,1.6,1.1,2.6C207.7,387.6,207,388.1,206.2,388.1z"/>
						<path id="XMLID_273_" d="M206.2,389.1c-0.4,0-0.7-0.1-1.1-0.2l-31.4-12.5c-1.5-0.6-2.3-2.3-1.7-3.8c0.6-1.5,2.2-2.3,3.8-1.8
							c0,0,0.1,0,0.2,0.1l31.3,12.5c0.7,0.3,1.3,0.9,1.6,1.6c0.3,0.7,0.3,1.5,0,2.3C208.5,388.3,207.4,389.1,206.2,389.1z
							 M174.8,372.6c-0.4,0-0.8,0.2-0.9,0.6c-0.2,0.5,0.1,1.1,0.6,1.3l31.4,12.5c0.5,0.2,1.1-0.1,1.3-0.6c0.1-0.2,0.1-0.5,0-0.8
							c-0.1-0.2-0.3-0.4-0.5-0.5l-31.4-12.5C175.1,372.7,174.9,372.6,174.8,372.6z"/>
					</g>
				</g>
			</g>
		</g>
		<g id="XMLID_2_">
			<g id="XMLID_115_">
				<circle id="XMLID_268_" cx="349.8" cy="289.5" r="5.5"/>
				<path id="XMLID_269_" d="M349.8,295.9c-3.6,0-6.5-2.9-6.5-6.5s2.9-6.5,6.5-6.5c3.6,0,6.5,2.9,6.5,6.5S353.3,295.9,349.8,295.9z
					 M349.8,285c-2.5,0-4.5,2-4.5,4.5c0,2.5,2,4.5,4.5,4.5c2.5,0,4.5-2,4.5-4.5C354.2,287,352.2,285,349.8,285z"/>
			</g>
		</g>
		<g id="XMLID_1_">
			<g id="XMLID_85_">
				<circle id="XMLID_251_" cx="349.8" cy="323.2" r="5.5"/>
				<path id="XMLID_265_" d="M349.8,329.7c-3.6,0-6.5-2.9-6.5-6.5c0-3.6,2.9-6.5,6.5-6.5c3.6,0,6.5,2.9,6.5,6.5
					C356.2,326.8,353.3,329.7,349.8,329.7z M349.8,318.8c-2.5,0-4.5,2-4.5,4.5c0,2.5,2,4.5,4.5,4.5c2.5,0,4.5-2,4.5-4.5
					C354.2,320.8,352.2,318.8,349.8,318.8z"/>
			</g>
		</g>
	</g>
</g>
</svg>
