<?xml version="1.0" encoding="utf-8"?>
<!-- Generator: Adobe Illustrator 19.0.0, SVG Export Plug-In . SVG Version: 6.00 Build 0)  -->
<svg version="1.1" id="Layer_1" xmlns="http://www.w3.org/2000/svg" xmlns:xlink="http://www.w3.org/1999/xlink" x="0px" y="0px"
	 viewBox="0 0 512 512" style="enable-background:new 0 0 512 512;" xml:space="preserve">
<style type="text/css">
	.st0{fill:#CAFF76;}
	.st1{fill:#FFFFFF;}
</style>
<circle id="XMLID_183_" class="st0" cx="256" cy="256" r="256"/>
<g id="XMLID_8_">
	<g id="XMLID_354_">
		<g id="XMLID_345_">
			<path id="XMLID_65_" class="st1" d="M278.8,310.2L278.8,310.2c-17.7-8.3-25.2-29.4-16.9-47.1L330,118.9
				c8.3-17.7,29.4-25.2,47.1-16.9l0,0c17.7,8.3,25.2,29.4,16.9,47.1l-68.1,144.3C317.5,311,296.4,318.6,278.8,310.2z"/>
			<path id="XMLID_69_" d="M293.8,316.2c-5.4,0-10.9-1.2-16.1-3.6l0,0c-18.9-8.9-27-31.6-18.1-50.5l68.1-144.3
				c4.3-9.2,12-16.1,21.5-19.5c9.5-3.4,19.8-2.9,29,1.4c18.9,8.9,27,31.6,18.1,50.5l-68.1,144.3C321.7,308.2,308,316.2,293.8,316.2z
				 M279.9,307.9c16.3,7.7,35.9,0.7,43.6-15.6l68.1-144.3c3.7-7.9,4.2-16.8,1.2-25c-3-8.2-8.9-14.8-16.8-18.6
				c-7.9-3.7-16.8-4.2-25-1.2c-8.2,3-14.8,8.9-18.6,16.8l-68.1,144.3C256.5,280.6,263.6,300.2,279.9,307.9L279.9,307.9z"/>
		</g>
		<g id="XMLID_347_">
			<path id="XMLID_68_" d="M354.2,197.4c-1.1,0-2.1-0.7-2.4-1.7l-18.6-51.9c-0.5-1.4,0.2-2.8,1.6-3.3c1.4-0.5,2.8,0.2,3.3,1.6
				l18.6,51.9c0.5,1.4-0.2,2.8-1.6,3.3C354.8,197.3,354.5,197.4,354.2,197.4z"/>
		</g>
		<g id="XMLID_348_">
			<path id="XMLID_67_" d="M334.6,239.1c-1.1,0-2.1-0.7-2.4-1.7l-18.6-51.9c-0.5-1.4,0.2-2.8,1.6-3.3c1.4-0.5,2.8,0.2,3.3,1.6
				l18.6,51.9c0.5,1.4-0.2,2.8-1.6,3.3C335.2,239,334.9,239.1,334.6,239.1z"/>
		</g>
		<g id="XMLID_349_">
			<path id="XMLID_66_" d="M314.9,280.7c-1.1,0-2.1-0.7-2.4-1.7l-18.6-51.9c-0.5-1.4,0.2-2.8,1.6-3.3c1.4-0.5,2.8,0.2,3.3,1.6
				l18.6,51.9c0.5,1.4-0.2,2.8-1.6,3.3C315.5,280.7,315.2,280.7,314.9,280.7z"/>
		</g>
	</g>
	<g id="XMLID_353_">
		<g id="XMLID_346_">
			<polygon id="XMLID_61_" class="st1" points="209.9,161 264.2,161 238.2,187 186.1,187 			"/>
			<path id="XMLID_62_" d="M238.2,189h-52.1c-1,0-2-0.4-2.4-1.3c-0.4-0.9-0.2-1.9,0.5-2.7l23.8-26.1c0.5-0.5,1.2-0.9,1.9-0.9h54.3
				c1.1,0,2,0.7,2.4,1.7c0.4,1,0.2,2.1-0.6,2.9l-25.9,25.8C239.6,188.9,238.9,189,238.2,189z M192,184h45.1l20.7-21H211L192,184z"/>
		</g>
		<g id="XMLID_350_">
			<polygon id="XMLID_57_" class="st1" points="263.9,160.7 289,185.7 289,270 185,270 185,187 238.1,187 			"/>
			<path id="XMLID_58_" d="M288.9,273H185.6c-1.4,0-2.6-0.7-2.6-2.2v-84c0-1.4,1.2-2.8,2.6-2.8H237l24.9-25.3
				c0.5-0.5,1.2-0.7,1.8-0.7c0,0,0,0,0,0c0.7,0,1.4,0.3,1.8,0.8l25.3,25.1c0.5,0.5,1,1.1,1,1.8v85.1C292,272.3,290.4,273,288.9,273z
				 M189,268h98v-81.2l-22.8-22.5l-24,24.1c-0.5,0.5-1.3,0.6-2,0.6H189V268z"/>
		</g>
		<g id="XMLID_352_">
			<line id="XMLID_55_" class="st1" x1="238" y1="186" x2="238" y2="270"/>
			<path id="XMLID_56_" d="M238,273.1c-1.4,0-3-1.2-3-2.6v-84c0-1.4,1.6-2.6,3-2.6s3,1.2,3,2.6v84C241,271.9,239.4,273.1,238,273.1z
				"/>
		</g>
		<g id="XMLID_351_">
			<rect id="XMLID_51_" x="209" y="143" class="st1" width="55" height="18"/>
			<path id="XMLID_52_" d="M267,160.4c0,1.4-1.2,2.6-2.6,2.6h-54.8c-1.4,0-2.6-1.2-2.6-2.6v-17.8c0-1.4,1.2-2.6,2.6-2.6h54.8
				c1.4,0,2.6,1.2,2.6,2.6V160.4z M212,158h49v-12h-49V158z"/>
		</g>
	</g>
	<g id="XMLID_355_">
		<g id="XMLID_368_">
			<path id="XMLID_46_" class="st1" d="M379.7,206.5v183.8c0,12-9.7,21.7-21.7,21.7H154.5V206.2l27.8,14.9l27.8-14.9l27.6,14.9
				l27.6-14.8l27.5,15l27.4-14.7l29.8,13.9L379.7,206.5z"/>
			<path id="XMLID_48_" d="M358,414.7H154.5c-1.4,0-2.6-1.2-2.6-2.6V206.2c0-0.9,0.5-1.8,1.3-2.2c0.8-0.5,1.8-0.5,2.6-0.1l26.6,14.2
				l26.6-14.2c0.8-0.4,1.7-0.4,2.5,0l26.4,14.2l26.3-14.2c0.8-0.4,1.7-0.4,2.5,0l26.3,14.3l26.2-14c0.7-0.4,1.6-0.4,2.3-0.1
				l28.7,13.4l28.5-13.4c0.8-0.4,1.7-0.3,2.5,0.2c0.8,0.5,1.2,1.3,1.2,2.2v183.8C382.3,403.7,371.4,414.7,358,414.7z M157.1,409.5
				H358c10.6,0,19.1-8.6,19.1-19.1V210.6l-25.9,12.2c-0.7,0.3-1.5,0.3-2.2,0l-28.6-13.4l-26.3,14.1c-0.8,0.4-1.7,0.4-2.5,0
				l-26.3-14.3l-26.3,14.2c-0.8,0.4-1.7,0.4-2.5,0l-26.4-14.2l-26.6,14.2c-0.8,0.4-1.7,0.4-2.5,0l-24-12.8V409.5z"/>
		</g>
		<g id="XMLID_360_">
			<path id="XMLID_47_" d="M319.5,415c-1.4,0-2.5-1.2-2.5-2.6V206.5c0-1.4,1.1-2.6,2.5-2.6s2.5,1.2,2.5,2.6v205.9
				C322,413.9,320.9,415,319.5,415z"/>
		</g>
	</g>
	<g id="XMLID_4_">
		<g id="XMLID_6_">
			<path id="XMLID_13_" class="st1" d="M162.3,411.7c36.8,13.4,62.3-56.6,38.7-72.8c-23.8-16.4-38.7,5.2-38.7,5.2
				s-15.6-21.6-38.7-5.2C100.3,355.5,125.5,425.1,162.3,411.7z"/>
			<path id="XMLID_15_" d="M171.6,416c-3,0-6.1-0.5-9.3-1.6c-19,6.3-34.3-7.6-42.4-23c-10-19-11.9-44.7,2.2-54.7
				c19.8-14.1,34.7-2.2,40.1,3.3c2.8-3.1,8.5-8,16.5-9.5c7.7-1.4,15.6,0.7,23.7,6.2c14.1,9.7,12.4,35.2,2.6,54.2
				C198.3,403.9,186.5,416,171.6,416z M140.9,335.3c-4.6,0-9.9,1.5-15.7,5.6c-11.6,8.3-9.4,31.4-0.6,48.1
				c3.5,6.6,16.4,27.6,36.9,20.2c0.6-0.2,1.2-0.2,1.8,0c16.4,6,30-6.8,37.2-20.8c8.6-16.6,10.7-39.5-0.9-47.5
				c-21.3-14.7-34.5,3.4-35,4.2c-0.5,0.7-1.3,0.8-2.1,0.8c0,0,0,0,0,0c-0.8,0-1.6-0.1-2.1-0.8C159.8,344.7,152.5,335.3,140.9,335.3z
				"/>
		</g>
		<g id="XMLID_5_">
			<path id="XMLID_14_" d="M162.3,346.6c-0.2,0-0.3,0-0.5,0c-1.4-0.3-2.3-1.6-2.1-3.1c4.7-24.4-14.6-32.7-14.8-32.8
				c-1.3-0.5-2-2.1-1.4-3.4c0.5-1.3,2.1-2,3.4-1.4c0.2,0.1,23.5,10.1,17.9,38.6C164.6,345.8,163.5,346.6,162.3,346.6z"/>
		</g>
		<g id="XMLID_7_">
			<path id="XMLID_9_" class="st1" d="M160.2,322.4c0,0,2.1-39.3,43.8-32.2C203.9,290.2,201.9,329.1,160.2,322.4z"/>
			<path id="XMLID_10_" d="M169.3,325.8c-3,0-6.2-0.3-9.5-0.8c-1.3-0.2-2.3-1.4-2.2-2.7c0-0.7,1.1-17.9,14-28.2
				c8.2-6.6,19.3-8.8,32.8-6.5c1.3,0.2,2.2,1.4,2.2,2.7c0,0.7-1.1,17.6-13.8,27.9C186.5,323.3,178.7,325.8,169.3,325.8z
				 M163.1,320.2c11,1.3,19.9-0.7,26.4-6c8.4-6.8,10.9-17.2,11.6-21.8c-10.9-1.4-19.7,0.5-26.2,5.7
				C166.4,304.9,163.8,315.5,163.1,320.2z"/>
		</g>
	</g>
</g>
</svg>
