<?xml version="1.0" encoding="utf-8"?>
<!-- Generator: Adobe Illustrator 19.0.0, SVG Export Plug-In . SVG Version: 6.00 Build 0)  -->
<svg version="1.1" id="Layer_1" xmlns="http://www.w3.org/2000/svg" xmlns:xlink="http://www.w3.org/1999/xlink" x="0px" y="0px"
	 viewBox="0 0 512 512" style="enable-background:new 0 0 512 512;" xml:space="preserve">
<style type="text/css">
	.st0{fill:#7EB5E8;}
	.st1{fill:#FFFFFF;}
	.st2{fill:none;}
</style>
<circle id="XMLID_133_" class="st0" cx="256" cy="256" r="256"/>
<g id="XMLID_236_">
	<g id="XMLID_232_">
		<path id="XMLID_250_" class="st1" d="M263,183v169H135V183c0-10.6,7.9-20,18.5-20h88.8C252.9,163,263,172.4,263,183z"/>
	</g>
	<g id="XMLID_231_">
		<path id="XMLID_249_" class="st1" d="M263,352v15.1c0,10.6-10.1,18.9-20.7,18.9h-88.8c-10.6,0-18.5-8.3-18.5-18.9V352H263z"/>
	</g>
	<g id="XMLID_230_">
		<circle id="XMLID_248_" cx="197.9" cy="371" r="7.8"/>
	</g>
	<g id="XMLID_229_">
		<path id="XMLID_243_" d="M242.3,389.6h-88.8c-12.4,0-22.5-10.1-22.5-22.5V183c0-12.4,10.1-22.5,22.5-22.5h88.8
			c12.4,0,22.5,10.1,22.5,22.5v184.1C264.8,379.5,254.7,389.6,242.3,389.6z M153.5,167.3c-8.7,0-15.7,7.1-15.7,15.7v184.1
			c0,8.7,7.1,15.7,15.7,15.7h88.8c8.7,0,15.7-7.1,15.7-15.7V183c0-8.7-7.1-15.7-15.7-15.7H153.5z"/>
	</g>
	<g id="XMLID_228_">
		<rect id="XMLID_242_" x="135" y="350" width="128" height="7"/>
	</g>
	<g id="XMLID_233_">
		<g id="XMLID_244_">
			<path id="XMLID_247_" class="st1" d="M379,364.4c0,12.3-10.8,21.6-23.8,21.6H252.1c-13,0-23.1-9.3-23.1-21.6V147.5
				c0-12.3,10.1-23.5,23.1-23.5h103.1c13,0,23.8,11.2,23.8,23.5V364.4z"/>
		</g>
		<g id="XMLID_235_">
			<path id="XMLID_239_" d="M358.5,389.5H248c-12.4,0-22.5-10.1-22.5-22.5V144.9c0-12.4,10.1-22.5,22.5-22.5h110.6
				c12.4,0,22.5,10.1,22.5,22.5V367C381,379.4,370.9,389.5,358.5,389.5z M248,129.2c-8.7,0-15.7,7.1-15.7,15.7V367
				c0,8.7,7.1,15.7,15.7,15.7h110.6c8.7,0,15.7-7.1,15.7-15.7V144.9c0-8.7-7.1-15.7-15.7-15.7H248z"/>
		</g>
		<g id="XMLID_234_">
			<path id="XMLID_238_" d="M321.4,146H286c-1.9,0-3.4-1.1-3.4-3s1.5-3,3.4-3h35.4c1.9,0,3.4,1.1,3.4,3S323.2,146,321.4,146z"/>
		</g>
	</g>
	<g id="XMLID_227_">
		<line id="XMLID_237_" class="st2" x1="133.8" y1="353.3" x2="133.8" y2="353.3"/>
	</g>
</g>
</svg>
