<?xml version="1.0" encoding="utf-8"?>
<!-- Generator: Adobe Illustrator 19.0.0, SVG Export Plug-In . SVG Version: 6.00 Build 0)  -->
<svg version="1.1" id="Layer_1" xmlns="http://www.w3.org/2000/svg" xmlns:xlink="http://www.w3.org/1999/xlink" x="0px" y="0px"
	 viewBox="0 0 512 512" style="enable-background:new 0 0 512 512;" xml:space="preserve">
<style type="text/css">
	.st0{fill:#7BFFC6;}
	.st1{fill:#FFFFFF;}
</style>
<circle id="XMLID_727_" class="st0" cx="256" cy="256" r="256"/>
<g id="XMLID_339_">
	<g id="XMLID_686_">
		<path id="XMLID_803_" d="M245,406.5H106.7c-7.3,0-13.1-5.9-13.1-13.1V118.7c0-7.3,5.9-13.1,13.1-13.1H245
			c7.3,0,13.1,5.9,13.1,13.1v274.6C258.1,400.6,252.2,406.5,245,406.5z M106.7,111.3c-4.1,0-7.4,3.3-7.4,7.4v274.6
			c0,4.1,3.3,7.4,7.4,7.4H245c4.1,0,7.4-3.3,7.4-7.4V118.7c0-4.1-3.3-7.4-7.4-7.4H106.7z"/>
	</g>
	<g id="XMLID_685_">
		<path id="XMLID_800_" d="M245,406.5H106.7c-7.3,0-13.1-5.9-13.1-13.1V118.7c0-7.3,5.9-13.1,13.1-13.1H245
			c7.3,0,13.1,5.9,13.1,13.1v274.6C258.1,400.6,252.2,406.5,245,406.5z M106.7,111.3c-4.1,0-7.4,3.3-7.4,7.4v274.6
			c0,4.1,3.3,7.4,7.4,7.4H245c4.1,0,7.4-3.3,7.4-7.4V118.7c0-4.1-3.3-7.4-7.4-7.4H106.7z"/>
	</g>
	<g id="XMLID_684_">
		<path id="XMLID_797_" d="M103,168.9h-9.5v-32.5h9.5c4.2,0,7.6,3.4,7.6,7.6v17.2C110.6,165.5,107.2,168.9,103,168.9z M99.2,163.2
			h3.8c1.1,0,1.9-0.9,1.9-1.9v-17.2c0-1.1-0.9-1.9-1.9-1.9h-3.8V163.2z"/>
	</g>
	<g id="XMLID_683_">
		<path id="XMLID_794_" d="M103,310.2h-9.5v-32.5h9.5c4.2,0,7.6,3.4,7.6,7.6v17.2C110.6,306.7,107.2,310.2,103,310.2z M99.2,304.4
			h3.8c1.1,0,1.9-0.9,1.9-1.9v-17.2c0-1.1-0.9-1.9-1.9-1.9h-3.8V304.4z"/>
	</g>
	<g id="XMLID_682_">
		<rect id="XMLID_793_" x="97" y="203" width="158" height="5"/>
	</g>
	<g id="XMLID_681_">
		<path id="XMLID_790_" d="M103,168.9h-9.5v-32.5h9.5c4.2,0,7.6,3.4,7.6,7.6v17.2C110.6,165.5,107.2,168.9,103,168.9z M99.2,163.2
			h3.8c1.1,0,1.9-0.9,1.9-1.9v-17.2c0-1.1-0.9-1.9-1.9-1.9h-3.8V163.2z"/>
	</g>
	<g id="XMLID_678_">
		<path id="XMLID_787_" d="M103,310.2h-9.5v-32.5h9.5c4.2,0,7.6,3.4,7.6,7.6v17.2C110.6,306.7,107.2,310.2,103,310.2z M99.2,304.4
			h3.8c1.1,0,1.9-0.9,1.9-1.9v-17.2c0-1.1-0.9-1.9-1.9-1.9h-3.8V304.4z"/>
	</g>
	<g id="XMLID_677_">
		<path id="XMLID_784_" d="M405.3,406.5h-157c-7.3,0-13.1-5.9-13.1-13.1V242.7c0-7.3,5.9-13.1,13.1-13.1h157
			c7.2,0,13.1,5.9,13.1,13.1v150.6C418.5,400.6,412.6,406.5,405.3,406.5z M248.3,235.2c-4.1,0-7.4,3.3-7.4,7.4v150.6
			c0,4.1,3.3,7.4,7.4,7.4h157c4.1,0,7.4-3.3,7.4-7.4V242.7c0-4.1-3.3-7.4-7.4-7.4H248.3z"/>
	</g>
	<g id="XMLID_672_">
		<g id="XMLID_673_">
			<g id="XMLID_675_">
				<circle id="XMLID_807_" class="st1" cx="380.3" cy="252.4" r="6.7"/>
			</g>
			<g id="XMLID_674_">
				<circle id="XMLID_806_" class="st1" cx="273.4" cy="252.4" r="6.7"/>
			</g>
		</g>
	</g>
	<g id="XMLID_671_">
		<path id="XMLID_781_" d="M326.8,378.4c-22.6,0-41-18.4-41-41c0-22.6,18.4-41,41-41c22.6,0,41,18.4,41,41
			C367.9,360,349.5,378.4,326.8,378.4z M326.8,302.1c-19.5,0-35.3,15.8-35.3,35.3s15.8,35.3,35.3,35.3s35.3-15.8,35.3-35.3
			S346.3,302.1,326.8,302.1z"/>
	</g>
	<g id="XMLID_670_">
		<circle id="XMLID_780_" class="st1" cx="326.8" cy="337.4" r="26.9"/>
	</g>
	<g id="XMLID_669_">
		<path id="XMLID_676_" class="st1" d="M405.3,403.6h-157c-5.7,0-10.3-4.6-10.3-10.3V242.7c0-5.7,4.6-10.3,10.3-10.3h157
			c5.7,0,10.3,4.6,10.3,10.3v150.6C415.6,399,411,403.6,405.3,403.6z"/>
		<path id="XMLID_777_" d="M405.3,406.5h-157c-7.3,0-13.1-5.9-13.1-13.1V242.7c0-7.3,5.9-13.1,13.1-13.1h157
			c7.2,0,13.1,5.9,13.1,13.1v150.6C418.5,400.6,412.6,406.5,405.3,406.5z M248.3,235.2c-4.1,0-7.4,3.3-7.4,7.4v150.6
			c0,4.1,3.3,7.4,7.4,7.4h157c4.1,0,7.4-3.3,7.4-7.4V242.7c0-4.1-3.3-7.4-7.4-7.4H248.3z"/>
	</g>
	<g id="XMLID_668_">
		<path id="XMLID_774_" d="M326.8,378.4c-22.6,0-41-18.4-41-41c0-22.6,18.4-41,41-41c22.6,0,41,18.4,41,41
			C367.9,360,349.5,378.4,326.8,378.4z M326.8,302.1c-19.5,0-35.3,15.8-35.3,35.3s15.8,35.3,35.3,35.3s35.3-15.8,35.3-35.3
			S346.3,302.1,326.8,302.1z"/>
	</g>
	<g id="XMLID_667_">
		<path id="XMLID_771_" d="M326.8,367.1c-16.4,0-29.7-13.3-29.7-29.7c0-16.4,13.3-29.7,29.7-29.7c16.4,0,29.7,13.3,29.7,29.7
			C356.5,353.8,343.2,367.1,326.8,367.1z M326.8,313.4c-13.2,0-24,10.8-24,24c0,13.2,10.8,24,24,24c13.2,0,24-10.8,24-24
			C350.8,324.1,340.1,313.4,326.8,313.4z"/>
	</g>
	<g id="XMLID_341_">
		<g id="XMLID_666_">
			<path id="XMLID_768_" d="M366.6,262h-79.5c-2.7,0-4.9-2.2-4.9-4.9v-9.2c0-2.7,2.2-4.9,4.9-4.9h79.5c2.7,0,4.9,2.2,4.9,4.9v9.2
				C371.5,259.8,369.3,262,366.6,262z M287.8,256.2h77.9v-7.6h-77.9V256.2z"/>
		</g>
		<g id="XMLID_342_">
			<g id="XMLID_344_">
				<path id="XMLID_765_" d="M380.3,262c-5.3,0-9.5-4.3-9.5-9.5c0-5.3,4.3-9.5,9.5-9.5s9.5,4.3,9.5,9.5
					C389.8,257.7,385.5,262,380.3,262z M380.3,248.6c-2.1,0-3.8,1.7-3.8,3.8c0,2.1,1.7,3.8,3.8,3.8c2.1,0,3.8-1.7,3.8-3.8
					C384.1,250.3,382.4,248.6,380.3,248.6z"/>
			</g>
			<g id="XMLID_343_">
				<path id="XMLID_755_" d="M273.4,262c-5.3,0-9.5-4.3-9.5-9.5c0-5.3,4.3-9.5,9.5-9.5s9.5,4.3,9.5,9.5
					C282.9,257.7,278.6,262,273.4,262z M273.4,248.6c-2.1,0-3.8,1.7-3.8,3.8c0,2.1,1.7,3.8,3.8,3.8c2.1,0,3.8-1.7,3.8-3.8
					C277.2,250.3,275.5,248.6,273.4,248.6z"/>
			</g>
		</g>
	</g>
	<g id="XMLID_340_">
		<rect id="XMLID_754_" x="238" y="275" width="177" height="6"/>
	</g>
</g>
</svg>
