<?xml version="1.0" encoding="utf-8"?>
<!-- Generator: Adobe Illustrator 19.0.0, SVG Export Plug-In . SVG Version: 6.00 Build 0)  -->
<svg version="1.1" id="Layer_1" xmlns="http://www.w3.org/2000/svg" xmlns:xlink="http://www.w3.org/1999/xlink" x="0px" y="0px"
	 viewBox="0 0 512 512" style="enable-background:new 0 0 512 512;" xml:space="preserve">
<style type="text/css">
	.st0{fill:#7EB5E8;}
	.st1{fill:#FFFFFF;}
</style>
<circle id="XMLID_628_" class="st0" cx="256" cy="256" r="256"/>
<g id="XMLID_551_">
	<g id="XMLID_258_">
		<g id="XMLID_253_">
			<path id="XMLID_380_" class="st1" d="M383.8,329.5H128.2c-10.6,0-19.1-8.6-19.1-19.1V154.7c0-10.6,8.6-19.1,19.1-19.1h255.6
				c10.6,0,19.1,8.6,19.1,19.1v155.7C402.9,320.9,394.4,329.5,383.8,329.5z"/>
			<path id="XMLID_381_" d="M383.8,332.6H128.2c-12.2,0-22.2-10-22.2-22.2V154.7c0-12.2,10-22.2,22.2-22.2h255.6
				c12.2,0,22.2,10,22.2,22.2v155.7C406,322.6,396,332.6,383.8,332.6z M128.2,138.6c-8.9,0-16.1,7.2-16.1,16.1v155.7
				c0,8.9,7.2,16.1,16.1,16.1h255.6c8.9,0,16.1-7.2,16.1-16.1V154.7c0-8.9-7.2-16.1-16.1-16.1H128.2z"/>
		</g>
		<g id="XMLID_252_">
			<rect id="XMLID_376_" x="246.3" y="329.5" class="st1" width="19.5" height="30.4"/>
			<path id="XMLID_377_" d="M268.8,362.9h-25.6v-36.5h25.6V362.9z M249.3,356.8h13.3v-24.2h-13.3V356.8z"/>
		</g>
		<g id="XMLID_226_">
			<path id="XMLID_370_" class="st1" d="M294.1,376C294.1,376.1,294.1,375,294.1,376l-76.2,0c0-1,0-1.6,0-1.7
				c0-4.5,1.8-7.6,4.8-10.5c3-3,7-3.8,11.5-3.8h43.5C286.8,360,294.1,367,294.1,376z"/>
			<path id="XMLID_373_" d="M297.1,379h-82.3l0-2.8c0-1,0-1.7,0-1.8c0-4.9,1.8-9.3,5.7-13.2c3.2-3.2,7.7-5.2,13.7-5.2h43.5
				c10.7,0,19.4,8.9,19.4,19.5L297.1,379z M221,373h69.7c-1.3-6-6.6-10-12.9-10h-43.5c-4.4,0-7.3,0.8-9.4,2.9
				C222.4,368.3,221.3,370,221,373z"/>
		</g>
		<g id="XMLID_225_">
			<rect id="XMLID_372_" x="109" y="305" width="294" height="6"/>
		</g>
		<g id="XMLID_224_">
			<path id="XMLID_371_" d="M280.6,151h-50.2c-1.7,0-3.1-1.3-3.1-3s1.4-3,3.1-3h50.2c1.7,0,3.1,1.3,3.1,3S282.3,151,280.6,151z"/>
		</g>
		<g id="XMLID_223_">
			<circle id="XMLID_552_" cx="256" cy="318.9" r="4.4"/>
		</g>
	</g>
	<g id="XMLID_369_">
		<g id="XMLID_332_">
			<g id="XMLID_260_">
				<path id="XMLID_364_" class="st1" d="M284.4,277.5l13.2,69.9c0.8,4.3,4.9,7.1,9.2,6.3h0c4.3-0.8,7.1-4.9,6.3-9.2l-15.9-84.1
					l-15.5,2.9L284.4,277.5z"/>
				<path id="XMLID_365_" d="M307.3,355.8c-5.4,1-10.6-2.5-11.6-7.9l-16.3-86.1l19.6-3.7l16.3,86.1
					C316.2,349.5,312.7,354.7,307.3,355.8z M284.2,265l15.5,82.1c0.6,3.2,3.7,5.3,6.8,4.7c3.2-0.6,5.3-3.7,4.7-6.8l-15.5-82.1
					L284.2,265z"/>
			</g>
			<g id="XMLID_335_">
				<path id="XMLID_359_" class="st1" d="M317.8,260.3L317.8,260.3c3.5,18.5-11.9,35.1-30.6,33l-17.1-1.9c-3.6-0.4-6.5-3.1-7.2-6.6
					l-5.2-27.2c-0.7-3.5,1.1-7.1,4.3-8.8l15.2-8C294,232,314.3,241.8,317.8,260.3z"/>
				<path id="XMLID_361_" d="M296,295c-2.9,0.5-5.9,0.7-9,0.3l-17.1-1.9c-4.5-0.5-8.1-3.8-9-8.3l-5.2-27.2c-0.8-4.5,1.3-8.9,5.3-11
					l15.2-8c8.5-4.5,18.4-4.6,27-0.5c8.7,4.2,14.7,12,16.4,21.5c1.8,9.5-0.9,18.9-7.5,26C307.9,290.7,302.2,293.8,296,295z
					 M285.6,240c-2.5,0.5-5,1.3-7.3,2.6l-15.2,8c-2.4,1.3-3.7,3.9-3.2,6.6l5.2,27.2c0.5,2.7,2.7,4.7,5.4,5l17.1,1.9
					c8.3,0.9,16.2-2.1,21.9-8.2c5.6-6.1,8-14.3,6.4-22.4s-6.7-14.9-14.2-18.5C296.5,239.7,291,239,285.6,240z"/>
			</g>
			<g id="XMLID_261_">
				<line id="XMLID_357_" class="st1" x1="269.9" y1="256.7" x2="274.4" y2="280.8"/>
				<path id="XMLID_358_" d="M274.8,282.6c-1.1,0.2-2.2-0.5-2.4-1.6l-4.6-24.3c-0.2-1.1,0.5-2.2,1.6-2.4s2.2,0.5,2.4,1.6l4.6,24.3
					C276.6,281.3,275.9,282.4,274.8,282.6z"/>
			</g>
		</g>
		<g id="XMLID_259_">
			<g id="XMLID_264_">
				<path id="XMLID_336_" class="st1" d="M367,277.6l-13.5,69.9c-0.8,4.3-5,7.1-9.3,6.3h0c-4.3-0.8-7.1-5-6.3-9.3l16.3-84l15.5,3
					L367,277.6z"/>
				<path id="XMLID_337_" d="M343.8,355.7c-5.4-1-8.9-6.3-7.9-11.7l16.6-86.1l19.6,3.8l-16.6,86.1
					C354.4,353.2,349.2,356.8,343.8,355.7z M355.8,262.8l-15.9,82c-0.6,3.2,1.5,6.2,4.6,6.8c3.2,0.6,6.2-1.5,6.8-4.6l15.9-82
					L355.8,262.8z"/>
			</g>
			<g id="XMLID_263_">
				<path id="XMLID_256_" class="st1" d="M333.6,260.2L333.6,260.2c-3.6,18.5,11.7,35.1,30.4,33.1l17.1-1.8c3.6-0.4,6.5-3.1,7.2-6.6
					l5.3-27.2c0.7-3.5-1-7.1-4.2-8.8l-15.2-8.1C357.6,232,337.2,241.7,333.6,260.2z"/>
				<path id="XMLID_257_" d="M355.3,295c-6.2-1.2-11.9-4.4-16.3-9.2c-6.5-7.1-9.2-16.6-7.4-26c1.8-9.4,7.9-17.2,16.5-21.4
					c8.7-4.1,18.5-3.9,27,0.6l15.2,8.1c4,2.1,6.1,6.6,5.3,11l-5.3,27.2c-0.9,4.5-4.5,7.8-9,8.3l-17.1,1.8
					C361.2,295.7,358.2,295.5,355.3,295z M365.9,240c-5.4-1-10.9-0.3-16,2.1c-7.5,3.6-12.7,10.3-14.3,18.5
					c-1.6,8.1,0.7,16.3,6.4,22.4c5.6,6.1,13.6,9.1,21.8,8.2l17.1-1.8c2.7-0.3,4.9-2.3,5.4-4.9l5.3-27.2c0.5-2.7-0.8-5.3-3.2-6.6
					l-15.2-8.1C370.9,241.4,368.4,240.5,365.9,240z"/>
			</g>
			<g id="XMLID_262_">
				<line id="XMLID_254_" class="st1" x1="380.7" y1="256.6" x2="376" y2="280.7"/>
				<path id="XMLID_255_" d="M375.1,282.4c-1.1-0.2-2.3-1.4-2.1-2.5l4.7-24.3c0.2-1.1,1.8-1.8,2.9-1.5c1.1,0.2,2.3,1.4,2.1,2.5
					l-4.7,24.3C377.8,282,376.3,282.6,375.1,282.4z"/>
			</g>
		</g>
	</g>
</g>
</svg>
